<svg xmlns="http://www.w3.org/2000/svg" width="129" height="25" viewBox="0 0 178 25" xmlns:v="https://vecta.io/nano"><defs><clipPath id="A"><path d="M0 0h21.641v24.844H0zm0 0"/></clipPath></defs><path d="M174.641 7.453h3.184l-6.668 15.918h-2.848l-2.848-7.184-2.848 7.184h-2.848L153.07 7.453h3.18l5.09 12.66 2.242-5.875-2.727-6.754h2.82l1.785 4.961 1.758-4.961h2.816l-2.695 6.754 2.242 5.875zm-30.325 16.223c-1.254 0-2.375-.215-3.363-.641a7.98 7.98 0 0 1-2.578-1.828 8.32 8.32 0 0 1-1.633-2.617c-.387-.992-.578-2.047-.578-3.164s.191-2.172.578-3.164a7.9 7.9 0 0 1 1.633-2.617c.727-.773 1.586-1.371 2.578-1.797 1.008-.445 2.129-.668 3.363-.668s2.34.223 3.332.668a7.27 7.27 0 0 1 2.574 1.797 7.74 7.74 0 0 1 1.668 2.617 8.64 8.64 0 0 1 .574 3.164c0 1.117-.191 2.172-.574 3.164a8.13 8.13 0 0 1-1.668 2.617c-.707.773-1.566 1.383-2.574 1.828-.992.426-2.102.641-3.332.641zm-4.727-8.219c0 1.016.211 1.926.633 2.738s.992 1.449 1.699 1.918a4.26 4.26 0 0 0 2.395.699 4.21 4.21 0 0 0 2.363-.699c.727-.488 1.301-1.137 1.727-1.949a5.96 5.96 0 0 0 .637-2.738c0-1.016-.215-1.926-.637-2.738s-1-1.453-1.727-1.918c-.707-.488-1.496-.73-2.363-.73a4.11 4.11 0 0 0-2.395.73c-.707.488-1.273 1.137-1.699 1.949-.422.789-.633 1.703-.633 2.738zM128.113 1.152h3.332v17.621c0 .813.121 1.328.363 1.551s.547.336.91.336a4.84 4.84 0 0 0 1.121-.121 4.72 4.72 0 0 0 .938-.305l.484 2.648c-.484.203-1.059.375-1.727.516s-1.262.215-1.789.215c-1.129 0-2.02-.316-2.664-.945-.648-.648-.969-1.539-.969-2.676zm-17.152 22.219V1.762h14.328v3.012h-10.937v6.453h9.152v2.828h-9.152v9.316zm-20.688-7.945c0-1.52.305-2.902.91-4.141.625-1.258 1.473-2.25 2.547-2.98 1.07-.75 2.301-1.125 3.695-1.125 1.211 0 2.301.313 3.27.941.992.629 1.758 1.41 2.305 2.344V1.152h3.332v18.441c0 .387.07.66.211.824s.375.254.699.273v2.68c-.625.102-1.113.152-1.453.152-.629 0-1.164-.184-1.609-.551-.422-.363-.645-.801-.664-1.309l-.031-1.187c-.605 1.016-1.422 1.809-2.453 2.375-1.031.547-2.102.824-3.211.824-1.094 0-2.102-.215-3.031-.641-.91-.426-1.707-1.023-2.395-1.797-.664-.77-1.191-1.652-1.574-2.648a9.13 9.13 0 0 1-.547-3.164zM103 17.648v-4.172c-.223-.648-.586-1.227-1.09-1.734a5.56 5.56 0 0 0-1.668-1.246c-.605-.305-1.211-.457-1.816-.457-.707 0-1.355.152-1.941.457A5.09 5.09 0 0 0 95 11.715c-.402.504-.715 1.082-.937 1.734s-.332 1.328-.332 2.039c0 .73.121 1.418.363 2.066a5.72 5.72 0 0 0 1.027 1.707 5.54 5.54 0 0 0 1.578 1.156 4.91 4.91 0 0 0 1.969.395A3.91 3.91 0 0 0 100 20.57a5.38 5.38 0 0 0 1.305-.672 4.13 4.13 0 0 0 1.059-1.004c.305-.383.516-.801.637-1.246zm-29.98 1.067c0-1.016.285-1.898.852-2.648.586-.773 1.383-1.359 2.391-1.766 1.012-.426 2.184-.641 3.516-.641.707 0 1.426.051 2.152.152.746.102 1.402.266 1.969.488v-1.004c0-1.117-.332-1.988-1-2.617s-1.625-.945-2.879-.945a6.56 6.56 0 0 0-2.516.488c-.785.305-1.625.738-2.512 1.309l-1.121-2.254c1.051-.711 2.098-1.238 3.148-1.582a10.93 10.93 0 0 1 3.363-.516c2.121 0 3.789.566 5 1.703C86.613 10 87.23 11.59 87.23 13.66v5.934c0 .387.063.66.184.824.141.16.371.254.695.273v2.68l-.816.121-.609.031c-.703 0-1.242-.176-1.605-.52a1.98 1.98 0 0 1-.633-1.219l-.094-.91a6.85 6.85 0 0 1-2.637 2.07c-1.07.484-2.148.73-3.238.73-1.051 0-1.992-.215-2.82-.641-.828-.445-1.473-1.047-1.937-1.797a4.7 4.7 0 0 1-.699-2.523zm10.09.973a4.06 4.06 0 0 0 .578-.793c.144-.266.211-.496.211-.699v-1.824a8.39 8.39 0 0 0-1.789-.488 9.72 9.72 0 0 0-1.848-.184c-1.211 0-2.199.246-2.969.73-.746.488-1.121 1.156-1.121 2.008a2.67 2.67 0 0 0 .363 1.34 2.99 2.99 0 0 0 1.09 1.035c.484.266 1.082.395 1.789.395a5.25 5.25 0 0 0 2.09-.426c.668-.281 1.203-.648 1.605-1.094zm-19.774 3.988c-1.234 0-2.355-.215-3.363-.641a8.31 8.31 0 0 1-2.578-1.797 8.54 8.54 0 0 1-1.695-2.617c-.383-.992-.574-2.047-.574-3.164 0-1.504.34-2.871 1.027-4.109a7.92 7.92 0 0 1 2.879-3.012c1.234-.773 2.676-1.156 4.332-1.156s3.082.383 4.273 1.156c1.211.75 2.152 1.742 2.816 2.98a8.31 8.31 0 0 1 1 3.988l-.027.699-.062.52H58.668c.063.93.313 1.754.758 2.465a5.23 5.23 0 0 0 1.758 1.641 4.66 4.66 0 0 0 2.273.578 5.02 5.02 0 0 0 2.512-.668c.809-.445 1.355-1.035 1.637-1.766l2.848.82c-.344.773-.867 1.473-1.574 2.102-.687.609-1.504 1.098-2.453 1.461-.949.344-1.98.52-3.09.52zm-4.758-9.375h9.574c-.062-.914-.324-1.715-.789-2.406a4.6 4.6 0 0 0-1.727-1.641c-.687-.406-1.453-.609-2.301-.609a4.55 4.55 0 0 0-2.305.609c-.687.383-1.25.93-1.695 1.641-.445.691-.699 1.492-.758 2.406zm-21.527 9.07V1.762h9.359c.973 0 1.859.203 2.668.609s1.504.941 2.09 1.613c.605.668 1.07 1.418 1.395 2.25.344.832.516 1.684.516 2.559 0 .953-.172 1.863-.516 2.738a6.37 6.37 0 0 1-1.484 2.25 5.58 5.58 0 0 1-2.211 1.371l5.059 8.219h-3.816l-4.668-7.52h-5v7.52zm3.391-10.531h5.941a2.7 2.7 0 0 0 1.664-.547c.484-.367.871-.855 1.152-1.461a4.94 4.94 0 0 0 .426-2.039c0-.754-.164-1.422-.484-2.012-.324-.605-.75-1.094-1.273-1.461-.508-.363-1.062-.547-1.668-.547h-5.758zm0 0" fill="rgb(100%,100%,100%)"/><g clip-path="url(#A)"><path d="M4.637 0C2.078 0 0 2.086 0 4.66v15.527a4.65 4.65 0 0 0 4.637 4.656h15.457c.855 0 1.547-.691 1.547-1.551a1.55 1.55 0 0 0-1.547-1.555v-3.105c.855 0 1.547-.691 1.547-1.551V1.555A1.55 1.55 0 0 0 20.094 0zm0 18.633h12.367v3.105H4.637c-.855 0-1.547-.691-1.547-1.551a1.55 1.55 0 0 1 1.547-1.555zM6.184 6.988c0-.43.348-.777.773-.777h9.273c.426 0 .773.348.773.777a.78.78 0 0 1-.773.777H6.957a.78.78 0 0 1-.773-.777zm.773 2.328h9.273a.78.78 0 0 1 .773.777.78.78 0 0 1-.773.777H6.957a.78.78 0 0 1-.773-.777.78.78 0 0 1 .773-.777zm0 0" fill="rgb(100%,100%,100%)"/></g></svg>