<svg width="329" height="46" viewBox="0 0 329 46" fill="none" xmlns="http://www.w3.org/2000/svg">
<path d="M322.794 13.712H328.674L316.354 43H311.09L305.826 29.784L300.562 43H295.298L282.922 13.712H288.802L298.21 37.008L302.354 26.2L297.314 13.768H302.522L305.826 22.896L309.074 13.768H314.282L309.298 26.2L313.442 37.008L322.794 13.712Z" fill="white"/>
<path d="M266.739 43.56C264.424 43.56 262.352 43.168 260.523 42.384C258.693 41.5627 257.107 40.4427 255.763 39.024C254.456 37.6053 253.448 36 252.739 34.208C252.029 32.3787 251.675 30.4373 251.675 28.384C251.675 26.3307 252.029 24.3893 252.739 22.56C253.448 20.7307 254.456 19.1253 255.763 17.744C257.107 16.3253 258.693 15.224 260.523 14.44C262.389 13.6187 264.461 13.208 266.739 13.208C269.016 13.208 271.069 13.6187 272.899 14.44C274.765 15.224 276.352 16.3253 277.659 17.744C279.003 19.1253 280.029 20.7307 280.739 22.56C281.448 24.3893 281.803 26.3307 281.803 28.384C281.803 30.4373 281.448 32.3787 280.739 34.208C280.029 36 279.003 37.6053 277.659 39.024C276.352 40.4427 274.765 41.5627 272.899 42.384C271.069 43.168 269.016 43.56 266.739 43.56ZM258.003 28.44C258.003 30.3067 258.395 31.9867 259.179 33.48C259.963 34.9733 261.008 36.1493 262.315 37.008C263.621 37.8667 265.096 38.296 266.739 38.296C268.344 38.296 269.8 37.8667 271.107 37.008C272.451 36.112 273.515 34.9173 274.299 33.424C275.083 31.8933 275.475 30.2133 275.475 28.384C275.475 26.5173 275.083 24.8373 274.299 23.344C273.515 21.8507 272.451 20.6747 271.107 19.816C269.8 18.92 268.344 18.472 266.739 18.472C265.096 18.472 263.621 18.92 262.315 19.816C261.008 20.712 259.963 21.9067 259.179 23.4C258.395 24.856 258.003 26.536 258.003 28.44Z" fill="white"/>
<path d="M236.791 2.12H242.951V34.544C242.951 36.0373 243.175 36.9893 243.623 37.4C244.071 37.8107 244.631 38.016 245.303 38.016C246.05 38.016 246.74 37.9413 247.375 37.792C248.047 37.6427 248.626 37.456 249.111 37.232L250.007 42.104C249.111 42.4773 248.047 42.7947 246.815 43.056C245.583 43.3173 244.482 43.448 243.511 43.448C241.42 43.448 239.778 42.8693 238.583 41.712C237.388 40.5173 236.791 38.8747 236.791 36.784V2.12Z" fill="white"/>
<path d="M205.089 43V3.24H231.577V8.784H211.361V20.656H228.273V25.864H211.361V43H205.089Z" fill="white"/>
<path d="M166.856 28.384C166.856 25.584 167.416 23.0453 168.536 20.768C169.693 18.4533 171.261 16.624 173.24 15.28C175.219 13.8987 177.496 13.208 180.072 13.208C182.312 13.208 184.328 13.7867 186.12 14.944C187.949 16.1013 189.368 17.5387 190.376 19.256V2.12H196.536V36.056C196.536 36.7653 196.666 37.2693 196.928 37.568C197.189 37.8667 197.619 38.0347 198.216 38.072V43C197.059 43.1867 196.163 43.28 195.528 43.28C194.371 43.28 193.381 42.944 192.56 42.272C191.776 41.6 191.365 40.7973 191.328 39.864L191.272 37.68C190.152 39.5467 188.64 41.0027 186.736 42.048C184.832 43.056 182.853 43.56 180.8 43.56C178.784 43.56 176.917 43.168 175.2 42.384C173.52 41.6 172.045 40.4987 170.776 39.08C169.544 37.6613 168.573 36.0373 167.864 34.208C167.192 32.3787 166.856 30.4373 166.856 28.384ZM190.376 32.472V24.8C189.965 23.6053 189.293 22.5413 188.36 21.608C187.464 20.6373 186.437 19.872 185.28 19.312C184.16 18.752 183.04 18.472 181.92 18.472C180.613 18.472 179.419 18.752 178.336 19.312C177.291 19.872 176.376 20.6187 175.592 21.552C174.845 22.4853 174.267 23.5493 173.856 24.744C173.445 25.9387 173.24 27.1893 173.24 28.496C173.24 29.84 173.464 31.1093 173.912 32.304C174.36 33.4613 174.995 34.5067 175.816 35.44C176.675 36.336 177.645 37.0453 178.728 37.568C179.848 38.0533 181.061 38.296 182.368 38.296C183.189 38.296 184.011 38.1467 184.832 37.848C185.69 37.5493 186.493 37.1387 187.24 36.616C188.024 36.0933 188.677 35.4773 189.2 34.768C189.76 34.0587 190.152 33.2933 190.376 32.472Z" fill="white"/>
<path d="M134.966 34.432C134.966 32.5653 135.489 30.9413 136.534 29.56C137.617 28.1413 139.092 27.0587 140.958 26.312C142.825 25.528 144.99 25.136 147.454 25.136C148.761 25.136 150.086 25.2293 151.43 25.416C152.812 25.6027 154.025 25.9013 155.07 26.312V24.464C155.07 22.4107 154.454 20.8053 153.222 19.648C151.99 18.4907 150.217 17.912 147.902 17.912C146.26 17.912 144.71 18.2107 143.254 18.808C141.798 19.368 140.249 20.1707 138.606 21.216L136.534 17.072C138.476 15.7653 140.417 14.7947 142.358 14.16C144.337 13.5253 146.409 13.208 148.574 13.208C152.494 13.208 155.574 14.2533 157.814 16.344C160.092 18.3973 161.23 21.328 161.23 25.136V36.056C161.23 36.7653 161.342 37.2693 161.566 37.568C161.828 37.8667 162.257 38.0347 162.854 38.072V43C162.294 43.112 161.79 43.1867 161.342 43.224C160.894 43.2613 160.521 43.28 160.222 43.28C158.916 43.28 157.926 42.9627 157.254 42.328C156.582 41.6933 156.19 40.9467 156.078 40.088L155.91 38.408C154.641 40.0507 153.017 41.32 151.038 42.216C149.06 43.112 147.062 43.56 145.046 43.56C143.105 43.56 141.369 43.168 139.838 42.384C138.308 41.5627 137.113 40.4613 136.254 39.08C135.396 37.6987 134.966 36.1493 134.966 34.432ZM153.614 36.224C154.062 35.7387 154.417 35.2533 154.678 34.768C154.94 34.2827 155.07 33.8533 155.07 33.48V30.12C154.025 29.7093 152.924 29.4107 151.766 29.224C150.609 29 149.47 28.888 148.35 28.888C146.11 28.888 144.281 29.336 142.862 30.232C141.481 31.128 140.79 32.36 140.79 33.928C140.79 34.7867 141.014 35.608 141.462 36.392C141.948 37.176 142.62 37.8107 143.478 38.296C144.374 38.7813 145.476 39.024 146.782 39.024C148.126 39.024 149.414 38.7627 150.646 38.24C151.878 37.7173 152.868 37.0453 153.614 36.224Z" fill="white"/>
<path d="M117.062 43.56C114.784 43.56 112.712 43.168 110.846 42.384C109.016 41.5627 107.43 40.4613 106.086 39.08C104.742 37.6613 103.696 36.056 102.95 34.264C102.24 32.4347 101.886 30.4933 101.886 28.44C101.886 25.6773 102.52 23.1573 103.79 20.88C105.059 18.5653 106.832 16.7173 109.11 15.336C111.387 13.9173 114.056 13.208 117.118 13.208C120.179 13.208 122.811 13.9173 125.014 15.336C127.254 16.7173 128.99 18.5467 130.222 20.824C131.454 23.1013 132.07 25.5467 132.07 28.16C132.07 28.608 132.051 29.0373 132.014 29.448C131.976 29.8213 131.939 30.1387 131.902 30.4H108.438C108.55 32.1173 109.016 33.6293 109.838 34.936C110.696 36.2053 111.779 37.2133 113.086 37.96C114.392 38.6693 115.792 39.024 117.286 39.024C118.928 39.024 120.478 38.6133 121.934 37.792C123.427 36.9707 124.435 35.888 124.958 34.544L130.222 36.056C129.587 37.4747 128.616 38.7627 127.31 39.92C126.04 41.04 124.528 41.936 122.774 42.608C121.019 43.2427 119.115 43.56 117.062 43.56ZM108.27 26.312H125.966C125.854 24.632 125.368 23.1573 124.51 21.888C123.688 20.5813 122.624 19.5733 121.318 18.864C120.048 18.1173 118.63 17.744 117.062 17.744C115.531 17.744 114.112 18.1173 112.806 18.864C111.536 19.5733 110.491 20.5813 109.67 21.888C108.848 23.1573 108.382 24.632 108.27 26.312Z" fill="white"/>
<path d="M68.48 43V3.24H85.784C87.576 3.24 89.2186 3.61333 90.712 4.36C92.2053 5.10666 93.4933 6.096 94.576 7.328C95.696 8.56 96.5546 9.94133 97.152 11.472C97.7866 13.0027 98.104 14.5707 98.104 16.176C98.104 17.9307 97.7866 19.6107 97.152 21.216C96.5173 22.8213 95.6026 24.2027 94.408 25.36C93.2506 26.5173 91.888 27.3573 90.32 27.88L99.672 43H92.616L83.992 29.168H74.752V43H68.48ZM74.752 23.624H85.728C86.8853 23.624 87.912 23.288 88.808 22.616C89.704 21.944 90.4133 21.048 90.936 19.928C91.4586 18.7707 91.72 17.52 91.72 16.176C91.72 14.7947 91.4213 13.5627 90.824 12.48C90.2266 11.36 89.4426 10.464 88.472 9.792C87.5386 9.12 86.512 8.784 85.392 8.784H74.752V23.624Z" fill="white"/>
<g clip-path="url(#clip0_1206_1557)">
<path d="M8.57143 0C3.83929 0 0 3.83929 0 8.57143V37.1429C0 41.875 3.83929 45.7143 8.57143 45.7143H34.2857H37.1429C38.7232 45.7143 40 44.4375 40 42.8571C40 41.2768 38.7232 40 37.1429 40V34.2857C38.7232 34.2857 40 33.0089 40 31.4286V2.85714C40 1.27679 38.7232 0 37.1429 0H34.2857H8.57143ZM8.57143 34.2857H31.4286V40H8.57143C6.99107 40 5.71429 38.7232 5.71429 37.1429C5.71429 35.5625 6.99107 34.2857 8.57143 34.2857ZM11.4286 12.8571C11.4286 12.0714 12.0714 11.4286 12.8571 11.4286H30C30.7857 11.4286 31.4286 12.0714 31.4286 12.8571C31.4286 13.6429 30.7857 14.2857 30 14.2857H12.8571C12.0714 14.2857 11.4286 13.6429 11.4286 12.8571ZM12.8571 17.1429H30C30.7857 17.1429 31.4286 17.7857 31.4286 18.5714C31.4286 19.3571 30.7857 20 30 20H12.8571C12.0714 20 11.4286 19.3571 11.4286 18.5714C11.4286 17.7857 12.0714 17.1429 12.8571 17.1429Z" fill="white"/>
</g>
<defs>
<clipPath id="clip0_1206_1557">
<rect width="40" height="45.7143" fill="white"/>
</clipPath>
</defs>
</svg>
