<svg xmlns="http://www.w3.org/2000/svg" width="129" height="25" viewBox="0 0 204 25" fill="rgb(100%,100%,100%)" xmlns:v="https://vecta.io/nano"><path d="M8.895 2.68c0-1.453 1.168-2.68 2.668-2.68h1.781c1.445 0 2.668 1.227 2.668 2.68v19.64c0 1.508-1.223 2.68-2.668 2.68h-1.781c-1.5 0-2.668-1.172-2.668-2.68zM0 13.395c0-1.453 1.168-2.68 2.668-2.68h1.781c1.445 0 2.668 1.227 2.668 2.68v8.926c0 1.508-1.223 2.68-2.668 2.68H2.668A2.64 2.64 0 0 1 0 22.32zM22.238 3.57c1.445 0 2.668 1.23 2.668 2.68v16.07c0 1.508-1.223 2.68-2.668 2.68h-1.777a2.64 2.64 0 0 1-2.672-2.68V6.25c0-1.449 1.168-2.68 2.672-2.68zM204 7.582l-4.297 15.941h-5.379l-2.508-10.344-2.59 10.344h-5.352L179.55 7.582h4.867l2.246 11.398 2.676-11.398h5.152l2.707 11.34 2.219-11.34zm-33.691 16.172c-1.559 0-2.961-.336-4.215-1a7.45 7.45 0 0 1-2.934-2.859c-.699-1.238-1.051-2.684-1.051-4.344 0-1.637.359-3.074 1.082-4.312a7.31 7.31 0 0 1 2.961-2.887c1.25-.664 2.656-1 4.211-1s2.961.336 4.215 1 2.238 1.629 2.957 2.887c.723 1.238 1.082 2.676 1.082 4.313s-.367 3.086-1.109 4.344a7.32 7.32 0 0 1-2.988 2.859c-1.254.664-2.656 1-4.211 1zm0-4.23c.93 0 1.715-.344 2.359-1.027.664-.687.996-1.668.996-2.945s-.32-2.254-.965-2.941a3.03 3.03 0 0 0-2.336-1.027A3.06 3.06 0 0 0 168 12.609c-.625.668-.937 1.648-.937 2.941 0 1.277.305 2.258.91 2.945a3.03 3.03 0 0 0 2.336 1.027zm0 0"/><path d="M159.547 2.383v21.141h-4.867V2.383zm-7.426 1.082v3.918h-8.141v4.227h6.094v3.801h-6.094v8.113h-4.867V3.465zM129.699 7.41c1.82 0 3.281.609 4.383 1.828 1.102 1.199 1.648 2.855 1.648 4.973v9.312h-4.836v-8.656c0-1.066-.277-1.895-.828-2.484s-1.289-.887-2.219-.887-1.672.293-2.219.887-.828 1.418-.828 2.484v8.656h-4.867V2.383h4.867v7.34c.496-.703 1.168-1.266 2.023-1.684s1.813-.629 2.875-.629zm-27.969 8.141c0-1.656.332-3.102.996-4.34.684-1.238 1.625-2.191 2.82-2.859 1.215-.664 2.598-1 4.156-1 1.992 0 3.652.523 4.98 1.57 1.348 1.051 2.23 2.527 2.645 4.43h-5.18c-.434-1.219-1.281-1.828-2.531-1.828a2.53 2.53 0 0 0-2.137 1.059c-.531.684-.797 1.676-.797 2.969s.266 2.297.797 3c.531.688 1.242 1.031 2.137 1.031 1.25 0 2.098-.609 2.531-1.828h5.18c-.414 1.863-1.297 3.332-2.645 4.398s-3.008 1.602-4.98 1.602c-1.559 0-2.941-.336-4.156-1a7.17 7.17 0 0 1-2.82-2.859c-.664-1.238-.996-2.684-.996-4.344zm-6.339-5.313c.57-.875 1.281-1.562 2.137-2.059.852-.512 1.801-.77 2.844-.77v5.172h-1.336c-1.215 0-2.125.266-2.734.801-.605.512-.91 1.426-.91 2.742v7.398h-4.867V7.582h4.867zm-25.157 5.285c0-1.637.305-3.074.914-4.312.625-1.238 1.469-2.191 2.531-2.859s2.25-1 3.559-1c1.121 0 2.098.23 2.934.687.852.457 1.508 1.055 1.961 1.801V7.582h4.871v15.941h-4.871v-2.258c-.473.742-1.137 1.344-1.992 1.801-.832.457-1.812.688-2.93.688-1.293 0-2.469-.336-3.531-1-1.062-.687-1.906-1.648-2.531-2.887-.609-1.258-.914-2.707-.914-4.344zm11.898.027c0-1.219-.34-2.18-1.023-2.883-.664-.707-1.48-1.059-2.449-1.059a3.32 3.32 0 0 0-2.477 1.059c-.664.684-.996 1.637-.996 2.855s.332 2.191.996 2.914a3.32 3.32 0 0 0 2.477 1.059c.969 0 1.785-.352 2.449-1.059.684-.703 1.023-1.668 1.023-2.887zm-13.495-.253a12.07 12.07 0 0 1-.086 1.426H57.535c.074.992.387 1.754.938 2.285.57.516 1.262.773 2.078.773 1.215 0 2.059-.516 2.535-1.543h5.18a7.03 7.03 0 0 1-1.453 2.828c-.68.84-1.543 1.496-2.59 1.973s-2.211.715-3.5.715c-1.555 0-2.941-.336-4.156-1s-2.164-1.621-2.848-2.859-1.023-2.684-1.023-4.344.332-3.102.996-4.34c.684-1.238 1.633-2.191 2.848-2.859s2.609-1 4.184-1c1.539 0 2.902.324 4.098.973a6.9 6.9 0 0 1 2.793 2.77c.68 1.203 1.023 2.602 1.023 4.203zm-4.98-1.289c0-.836-.285-1.504-.855-2s-1.281-.742-2.137-.742c-.812 0-1.508.238-2.074.715-.551.477-.895 1.152-1.027 2.027zm-20.278 9.715c-1.461 0-2.77-.238-3.926-.715s-2.09-1.18-2.789-2.113c-.684-.934-1.043-2.055-1.082-3.371h5.18c.078.742.332 1.316.77 1.715.438.379 1.004.57 1.707.57.723 0 1.289-.16 1.707-.484.418-.344.629-.809.629-1.402 0-.492-.172-.902-.516-1.227-.32-.324-.73-.59-1.223-.801-.473-.207-1.156-.445-2.051-.715-1.289-.398-2.344-.797-3.156-1.199s-1.52-.988-2.109-1.77-.883-1.801-.883-3.059c0-1.867.676-3.324 2.023-4.371 1.348-1.066 3.102-1.602 5.266-1.602 2.199 0 3.977.535 5.324 1.602 1.348 1.047 2.066 2.516 2.16 4.398h-5.266c-.035-.645-.273-1.152-.711-1.512-.437-.383-.996-.574-1.68-.574-.586 0-1.062.164-1.422.488-.359.305-.543.75-.543 1.34 0 .648.305 1.156.914 1.516s1.555.754 2.844 1.172c1.293.438 2.336.855 3.133 1.258.816.398 1.516.98 2.105 1.742s.883 1.742.883 2.941c0 1.145-.293 2.184-.883 3.117-.57.934-1.402 1.676-2.504 2.227s-2.402.828-3.902.828zm0 0"/></svg>