<svg width="150" height="133" viewBox="0 0 150 133" fill="none" xmlns="http://www.w3.org/2000/svg">
<g clip-path="url(#clip0_1203_1984)">
<g opacity="0.9">
<path d="M149.289 85.8547C150.657 66.9219 118.443 49.1679 77.3385 46.1998C36.2341 43.2318 1.80407 56.1737 0.436987 75.1065C-0.930093 94.0392 31.2834 111.793 72.3879 114.761C113.492 117.729 147.922 104.787 149.289 85.8547Z" stroke="#F5F5F6" stroke-width="0.8" stroke-miterlimit="10"/>
<path d="M146.554 81.9019C147.09 63.3916 114.94 47.4417 74.7455 46.2768C34.5505 45.1119 1.53119 59.1732 0.994748 77.6835C0.458308 96.1939 32.6079 112.144 72.8029 113.309C112.998 114.474 146.017 100.412 146.554 81.9019Z" stroke="#F5F5F6" stroke-width="0.8" stroke-miterlimit="10"/>
<path d="M73.2463 111.875C112.525 111.238 144.129 96.0555 143.835 77.965C143.542 59.8745 111.462 45.7262 72.1829 46.3638C32.904 47.0014 1.30032 62.1835 1.59398 80.274C1.88764 98.3645 33.9675 112.513 73.2463 111.875Z" stroke="#F5F5F6" stroke-width="0.8" stroke-miterlimit="10"/>
<path d="M73.671 110.43C112.038 107.989 142.229 91.6854 141.105 74.0149C139.981 56.3444 107.967 43.9982 69.6002 46.4389C31.2332 48.8797 1.0419 65.1831 2.16602 82.8536C3.29014 100.524 35.304 112.87 73.671 110.43Z" stroke="#F5F5F6" stroke-width="0.8" stroke-miterlimit="10"/>
<path d="M74.0872 108.989C111.547 104.748 140.331 87.327 138.378 70.0789C136.425 52.8308 104.474 42.2869 67.0148 46.5284C29.5552 50.7698 0.771432 68.1906 2.72441 85.4387C4.67738 102.687 36.6276 113.231 74.0872 108.989Z" stroke="#F5F5F6" stroke-width="0.8" stroke-miterlimit="10"/>
<path d="M74.4951 107.561C111.04 101.517 138.41 82.9733 135.627 66.1418C132.843 49.3103 100.961 40.5649 64.4154 46.6084C27.87 52.6519 0.500545 71.1958 3.28396 88.0272C6.06738 104.859 37.9497 113.604 74.4951 107.561Z" stroke="#F5F5F6" stroke-width="0.8" stroke-miterlimit="10"/>
<path d="M74.9242 106.113C110.56 98.2653 136.519 78.6025 132.905 62.1951C129.292 45.7878 97.4745 38.8491 61.839 46.6971C26.2035 54.5452 0.244416 74.208 3.85781 90.6153C7.47119 107.023 39.2887 113.961 74.9242 106.113Z" stroke="#F5F5F6" stroke-width="0.8" stroke-miterlimit="10"/>
<path d="M75.3422 104.679C110.063 95.0308 134.608 74.2465 130.164 58.2562C125.721 42.266 93.9717 37.125 59.2508 46.7736C24.5299 56.4221 -0.0147716 77.2064 4.42873 93.1967C8.87223 109.187 40.6213 114.328 75.3422 104.679Z" stroke="#F5F5F6" stroke-width="0.8" stroke-miterlimit="10"/>
<path d="M75.7718 103.223C109.578 91.7673 132.707 69.8613 127.431 54.2948C122.156 38.7283 90.4751 35.396 56.6692 46.8518C22.8633 58.3076 -0.265493 80.2135 5.00953 95.78C10.2846 111.347 41.9659 114.679 75.7718 103.223Z" stroke="#F5F5F6" stroke-width="0.8" stroke-miterlimit="10"/>
<path d="M76.197 101.787C109.094 88.5293 130.813 65.5025 124.709 50.3553C118.604 35.2081 86.9873 33.6763 54.0906 46.9341C21.1939 60.1918 -0.525441 83.2186 5.57907 98.3658C11.6836 113.513 43.3003 115.045 76.197 101.787Z" stroke="#F5F5F6" stroke-width="0.8" stroke-miterlimit="10"/>
<path d="M76.6183 100.359C108.603 85.3012 128.91 61.153 121.975 46.4224C115.04 31.6918 83.4896 31.9569 51.505 47.0146C19.5204 62.0722 -0.786409 86.2203 6.14843 100.951C13.0833 115.682 44.6337 115.416 76.6183 100.359Z" stroke="#F5F5F6" stroke-width="0.8" stroke-miterlimit="10"/>
<path d="M77.0467 98.908C108.117 82.045 127.009 56.7745 119.243 42.4648C111.477 28.1552 79.9931 30.225 48.9225 47.088C17.8518 63.951 -1.04011 89.2214 6.72618 103.531C14.4925 117.841 45.9761 115.771 77.0467 98.908Z" stroke="#F5F5F6" stroke-width="0.8" stroke-miterlimit="10"/>
<path d="M77.4628 97.4698C107.623 78.8061 125.106 52.4185 116.512 38.5314C107.919 24.6442 76.5026 28.5163 46.3425 47.1799C16.1825 65.8435 -1.30058 92.2312 7.29306 106.118C15.8867 120.005 47.3028 116.133 77.4628 97.4698Z" stroke="#F5F5F6" stroke-width="0.8" stroke-miterlimit="10"/>
<path d="M77.8931 96.0159C107.14 75.5446 123.209 48.0335 113.784 34.5683C104.359 21.103 73.0094 26.7827 43.7624 47.2541C14.5153 67.7255 -1.55366 95.2365 7.87129 108.702C17.2962 122.167 48.6461 116.487 77.8931 96.0159Z" stroke="#F5F5F6" stroke-width="0.8" stroke-miterlimit="10"/>
<path d="M78.3042 94.5652C106.64 72.2913 121.296 43.6576 111.04 30.61C100.783 17.5624 69.4982 25.0419 41.1626 47.3158C12.827 69.5897 -1.82913 98.2234 8.42725 111.271C18.6836 124.319 49.9686 116.839 78.3042 94.5652Z" stroke="#F5F5F6" stroke-width="0.8" stroke-miterlimit="10"/>
<path d="M78.7143 93.1344C106.14 69.0572 119.388 39.3038 108.304 26.6783C97.2198 14.0529 66.0015 23.3363 38.5757 47.4135C11.15 71.4906 -2.09769 101.244 8.98626 113.869C20.0702 126.495 51.2885 117.212 78.7143 93.1344Z" stroke="#F5F5F6" stroke-width="0.8" stroke-miterlimit="10"/>
<path d="M79.1379 91.6885C105.648 65.8095 117.481 34.9373 105.568 22.7336C93.6542 10.5298 62.506 21.6158 35.9961 47.4948C9.48616 73.3738 -2.34677 104.246 9.56653 116.45C21.4798 128.653 52.628 117.567 79.1379 91.6885Z" stroke="#F5F5F6" stroke-width="0.8" stroke-miterlimit="10"/>
<path d="M79.5628 90.2485C105.162 62.5658 115.582 30.5708 102.837 18.7857C90.0928 7.00064 59.0094 19.8883 33.4108 47.5711C7.81212 75.2539 -2.6082 107.249 10.1363 119.034C22.8809 130.819 53.9642 117.931 79.5628 90.2485Z" stroke="#F5F5F6" stroke-width="0.8" stroke-miterlimit="10"/>
<path d="M79.9788 88.8045C104.667 59.32 113.678 26.206 100.107 14.8424C86.5355 3.47879 55.5202 18.1687 30.8323 47.6533C6.14437 77.1378 -2.8673 110.252 10.7041 121.615C24.2756 132.979 55.2909 118.289 79.9788 88.8045Z" stroke="#F5F5F6" stroke-width="0.8" stroke-miterlimit="10"/>
<path d="M80.4008 87.3549C104.175 56.0677 111.773 21.8332 97.3717 10.8901C82.9703 -0.0530412 52.0229 16.4391 28.2488 47.7264C4.47466 79.0136 -3.12348 113.248 11.2779 124.191C25.6793 135.134 56.6266 118.642 80.4008 87.3549Z" stroke="#F5F5F6" stroke-width="0.8" stroke-miterlimit="10"/>
<path d="M80.8231 85.9126C103.683 52.8242 109.868 17.4702 94.6371 6.94734C79.406 -3.57555 48.5269 14.7174 25.6666 47.8059C2.80634 80.8943 -3.37839 116.248 11.8527 126.771C27.0837 137.294 57.9628 119.001 80.8231 85.9126Z" stroke="#F5F5F6" stroke-width="0.8" stroke-miterlimit="10"/>
<path d="M81.2483 84.4955C103.203 49.6056 107.98 13.1288 91.9185 3.02232C75.8572 -7.0842 45.0394 13.0067 23.0851 47.8966C1.13075 82.7865 -3.64648 119.263 12.4148 129.37C28.4762 139.476 59.2939 119.385 81.2483 84.4955Z" stroke="#F5F5F6" stroke-width="0.8" stroke-miterlimit="10"/>
</g>
</g>
<defs>
<clipPath id="clip0_1203_1984">
<rect width="149.74" height="132.38" fill="white"/>
</clipPath>
</defs>
</svg>
