<svg width="135" height="135" viewBox="0 0 135 135" fill="none" xmlns="http://www.w3.org/2000/svg">
<g clip-path="url(#clip0_1203_2009)">
<g opacity="0.9">
<path d="M67.1599 53.24C68.1319 53.24 68.9199 52.452 68.9199 51.48C68.9199 50.5079 68.1319 49.72 67.1599 49.72C66.1879 49.72 65.3999 50.5079 65.3999 51.48C65.3999 52.452 66.1879 53.24 67.1599 53.24Z" fill="#F5F5F6"/>
<path d="M69.6799 39.82C69.6799 41.21 68.5499 42.34 67.1599 42.34C65.7699 42.34 64.6399 41.21 64.6399 39.82C64.6399 38.43 65.7699 37.3 67.1599 37.3C68.5499 37.3 69.6799 38.43 69.6799 39.82Z" fill="#F5F5F6"/>
<path d="M70.45 28.16C70.45 29.98 68.98 31.45 67.16 31.45C65.34 31.45 63.87 29.98 63.87 28.16C63.87 26.34 65.34 24.87 67.16 24.87C68.98 24.87 70.45 26.34 70.45 28.16Z" fill="#F5F5F6"/>
<path d="M67.16 20.5501C69.4023 20.5501 71.22 18.7323 71.22 16.4901C71.22 14.2478 69.4023 12.4301 67.16 12.4301C64.9177 12.4301 63.1 14.2478 63.1 16.4901C63.1 18.7323 64.9177 20.5501 67.16 20.5501Z" fill="#F5F5F6"/>
<path d="M71.99 4.83C71.99 7.5 69.83 9.66 67.16 9.66C64.49 9.66 62.33 7.5 62.33 4.83C62.33 2.16 64.49 0 67.16 0C69.83 0 71.99 2.16 71.99 4.83Z" fill="#F5F5F6"/>
<path d="M65.3999 82.84C65.3999 81.87 66.1899 81.08 67.1599 81.08C68.1299 81.08 68.9199 81.87 68.9199 82.84C68.9199 83.81 68.1299 84.6 67.1599 84.6C66.1899 84.6 65.3999 83.81 65.3999 82.84Z" fill="#F5F5F6"/>
<path d="M64.6399 94.5C64.6399 93.11 65.7699 91.98 67.1599 91.98C68.5499 91.98 69.6799 93.11 69.6799 94.5C69.6799 95.89 68.5499 97.02 67.1599 97.02C65.7699 97.02 64.6399 95.89 64.6399 94.5Z" fill="#F5F5F6"/>
<path d="M63.87 106.16C63.87 104.34 65.34 102.87 67.16 102.87C68.98 102.87 70.45 104.34 70.45 106.16C70.45 107.98 68.98 109.45 67.16 109.45C65.34 109.45 63.87 107.98 63.87 106.16Z" fill="#F5F5F6"/>
<path d="M71.2211 118.018C71.3228 115.778 69.5894 113.88 67.3495 113.778C65.1095 113.677 63.2112 115.41 63.1095 117.65C63.0078 119.89 64.7412 121.788 66.9811 121.89C69.2211 121.992 71.1194 120.258 71.2211 118.018Z" fill="#F5F5F6"/>
<path d="M62.33 129.49C62.33 126.82 64.49 124.66 67.16 124.66C69.83 124.66 71.99 126.82 71.99 129.49C71.99 132.16 69.83 134.32 67.16 134.32C64.49 134.32 62.33 132.16 62.33 129.49Z" fill="#F5F5F6"/>
<path d="M82.84 68.9199C81.87 68.9199 81.08 68.1299 81.08 67.1599C81.08 66.1899 81.87 65.3999 82.84 65.3999C83.81 65.3999 84.6 66.1899 84.6 67.1599C84.6 68.1299 83.81 68.9199 82.84 68.9199Z" fill="#F5F5F6"/>
<path d="M94.5 69.6799C93.11 69.6799 91.98 68.5499 91.98 67.1599C91.98 65.7699 93.11 64.6399 94.5 64.6399C95.89 64.6399 97.02 65.7699 97.02 67.1599C97.02 68.5499 95.89 69.6799 94.5 69.6799Z" fill="#F5F5F6"/>
<path d="M106.16 70.45C104.34 70.45 102.87 68.98 102.87 67.16C102.87 65.34 104.34 63.87 106.16 63.87C107.98 63.87 109.45 65.34 109.45 67.16C109.45 68.98 107.98 70.45 106.16 70.45Z" fill="#F5F5F6"/>
<path d="M117.83 71.22C115.59 71.22 113.77 69.4 113.77 67.16C113.77 64.92 115.59 63.1 117.83 63.1C120.07 63.1 121.89 64.92 121.89 67.16C121.89 69.4 120.07 71.22 117.83 71.22Z" fill="#F5F5F6"/>
<path d="M129.49 71.99C126.82 71.99 124.66 69.83 124.66 67.16C124.66 64.49 126.82 62.33 129.49 62.33C132.16 62.33 134.32 64.49 134.32 67.16C134.32 69.83 132.16 71.99 129.49 71.99Z" fill="#F5F5F6"/>
<path d="M51.48 68.9199C52.452 68.9199 53.24 68.1319 53.24 67.1599C53.24 66.1879 52.452 65.3999 51.48 65.3999C50.5079 65.3999 49.72 66.1879 49.72 67.1599C49.72 68.1319 50.5079 68.9199 51.48 68.9199Z" fill="#F5F5F6"/>
<path d="M39.82 64.63C41.21 64.63 42.34 65.76 42.34 67.15C42.34 68.54 41.21 69.67 39.82 69.67C38.43 69.67 37.3 68.54 37.3 67.15C37.3 65.76 38.43 64.63 39.82 64.63Z" fill="#F5F5F6"/>
<path d="M28.16 63.87C29.98 63.87 31.45 65.34 31.45 67.16C31.45 68.98 29.98 70.45 28.16 70.45C26.34 70.45 24.87 68.98 24.87 67.16C24.87 65.34 26.34 63.87 28.16 63.87Z" fill="#F5F5F6"/>
<path d="M16.4901 63.1C18.7301 63.1 20.5501 64.92 20.5501 67.16C20.5501 69.4 18.7301 71.22 16.4901 71.22C14.2501 71.22 12.4301 69.4 12.4301 67.16C12.4301 64.92 14.2501 63.1 16.4901 63.1Z" fill="#F5F5F6"/>
<path d="M4.83 62.33C7.5 62.33 9.66 64.49 9.66 67.16C9.66 69.83 7.5 71.99 4.83 71.99C2.16 71.99 0 69.83 0 67.16C0 64.49 2.16 62.33 4.83 62.33Z" fill="#F5F5F6"/>
<path d="M81.6201 60.84C80.7801 61.32 79.7101 61.04 79.2201 60.2C78.7401 59.36 79.0201 58.29 79.8601 57.8C80.7001 57.32 81.7701 57.6 82.2601 58.44C82.7401 59.28 82.4601 60.35 81.6201 60.84Z" fill="#F5F5F6"/>
<path d="M92.1001 55.68C90.8901 56.38 89.3501 55.96 88.6501 54.76C87.9501 53.55 88.3701 52.01 89.5701 51.31C90.7801 50.61 92.3201 51.03 93.0201 52.23C93.7201 53.43 93.3001 54.98 92.1001 55.68Z" fill="#F5F5F6"/>
<path d="M102.59 50.51C101.01 51.42 99.0001 50.88 98.0901 49.3C97.1801 47.72 97.7201 45.71 99.3001 44.8C100.88 43.89 102.89 44.43 103.8 46.01C104.71 47.59 104.17 49.6 102.59 50.51Z" fill="#F5F5F6"/>
<path d="M113.07 45.35C111.13 46.47 108.64 45.81 107.52 43.86C106.4 41.92 107.06 39.43 109.01 38.31C110.96 37.19 113.44 37.85 114.56 39.8C115.68 41.74 115.02 44.23 113.07 45.35Z" fill="#F5F5F6"/>
<path d="M123.55 40.18C121.24 41.51 118.28 40.72 116.95 38.41C115.62 36.1 116.41 33.14 118.72 31.81C121.03 30.48 123.99 31.27 125.32 33.58C126.65 35.89 125.86 38.85 123.55 40.18Z" fill="#F5F5F6"/>
<path d="M52.7 73.4799C53.54 72.9999 54.61 73.2799 55.1 74.1199C55.58 74.9599 55.3 76.0299 54.46 76.5199C53.62 76.9999 52.55 76.7199 52.06 75.8799C51.58 75.0399 51.86 73.9699 52.7 73.4799Z" fill="#F5F5F6"/>
<path d="M42.22 78.64C43.43 77.94 44.97 78.36 45.67 79.56C46.37 80.77 45.95 82.31 44.75 83.01C43.54 83.71 42 83.29 41.3 82.09C40.6 80.88 41.02 79.34 42.22 78.64Z" fill="#F5F5F6"/>
<path d="M31.73 83.81C33.31 82.9 35.32 83.44 36.23 85.02C37.14 86.6 36.6 88.61 35.02 89.52C33.44 90.43 31.43 89.89 30.52 88.31C29.61 86.73 30.15 84.72 31.73 83.81Z" fill="#F5F5F6"/>
<path d="M21.2501 88.9699C23.1901 87.8499 25.6801 88.5099 26.8001 90.4599C27.9201 92.3999 27.2601 94.8899 25.3101 96.0099C23.3701 97.1299 20.8801 96.4699 19.7601 94.5199C18.6401 92.5799 19.3001 90.0899 21.2501 88.9699Z" fill="#F5F5F6"/>
<path d="M10.77 94.1399C13.08 92.8099 16.04 93.5999 17.37 95.9099C18.7 98.2199 17.91 101.18 15.6 102.51C13.29 103.84 10.33 103.05 9.00003 100.74C7.67003 98.4299 8.46003 95.4699 10.77 94.1399Z" fill="#F5F5F6"/>
<path d="M76.52 54.4601C76.04 55.3001 74.96 55.5901 74.12 55.1001C73.28 54.6201 72.99 53.5401 73.48 52.7001C73.96 51.8601 75.04 51.5701 75.88 52.0601C76.72 52.5401 77.01 53.6201 76.52 54.4601Z" fill="#F5F5F6"/>
<path d="M83.02 44.74C82.32 45.95 80.78 46.36 79.57 45.66C78.36 44.96 77.95 43.42 78.65 42.21C79.35 41 80.89 40.59 82.1 41.29C83.31 41.99 83.72 43.53 83.02 44.74Z" fill="#F5F5F6"/>
<path d="M89.51 35.0301C88.6 36.6101 86.59 37.1501 85.01 36.2401C83.43 35.3301 82.89 33.3201 83.8 31.7401C84.71 30.1601 86.72 29.6201 88.3 30.5301C89.88 31.4401 90.42 33.4501 89.51 35.0301Z" fill="#F5F5F6"/>
<path d="M96.01 25.31C94.89 27.25 92.3999 27.92 90.4599 26.8C88.5199 25.68 87.85 23.19 88.97 21.25C90.09 19.31 92.5799 18.64 94.5199 19.76C96.4599 20.88 97.13 23.37 96.01 25.31Z" fill="#F5F5F6"/>
<path d="M102.51 15.6C101.18 17.91 98.2201 18.7 95.9101 17.37C93.6001 16.04 92.81 13.08 94.14 10.77C95.47 8.46003 98.43 7.67003 100.74 9.00003C103.05 10.33 103.84 13.29 102.51 15.6Z" fill="#F5F5F6"/>
<path d="M57.7999 79.86C58.2799 79.02 59.3599 78.73 60.1999 79.22C61.0399 79.7 61.3299 80.78 60.8399 81.62C60.3599 82.46 59.2799 82.75 58.4399 82.26C57.5999 81.78 57.3099 80.7 57.7999 79.86Z" fill="#F5F5F6"/>
<path d="M51.3 89.58C52 88.37 53.54 87.96 54.75 88.66C55.96 89.36 56.37 90.9 55.67 92.11C54.97 93.32 53.43 93.73 52.22 93.03C51.01 92.33 50.6 90.79 51.3 89.58Z" fill="#F5F5F6"/>
<path d="M44.81 99.29C45.72 97.71 47.73 97.17 49.31 98.08C50.89 98.99 51.43 101 50.52 102.58C49.61 104.16 47.6 104.7 46.02 103.79C44.44 102.88 43.9 100.87 44.81 99.29Z" fill="#F5F5F6"/>
<path d="M38.3099 109.01C39.4299 107.07 41.9199 106.4 43.8599 107.52C45.7999 108.64 46.4699 111.13 45.3499 113.07C44.2299 115.01 41.7399 115.68 39.7999 114.56C37.8599 113.44 37.1899 110.95 38.3099 109.01Z" fill="#F5F5F6"/>
<path d="M31.81 118.72C33.14 116.41 36.1 115.62 38.41 116.95C40.72 118.28 41.51 121.24 40.18 123.55C38.85 125.86 35.89 126.65 33.58 125.32C31.27 123.99 30.48 121.03 31.81 118.72Z" fill="#F5F5F6"/>
<path d="M72.91 52.47C72.66 53.41 71.7 53.96 70.76 53.71C69.82 53.46 69.27 52.5 69.52 51.56C69.77 50.62 70.73 50.07 71.67 50.32C72.61 50.57 73.16 51.53 72.91 52.47Z" fill="#F5F5F6"/>
<path d="M76.68 41.4001C76.32 42.7501 74.93 43.5501 73.59 43.1901C72.24 42.8301 71.44 41.4401 71.8 40.1001C72.16 38.7501 73.55 37.9501 74.89 38.3101C76.24 38.6701 77.04 40.0601 76.68 41.4001Z" fill="#F5F5F6"/>
<path d="M80.4399 30.34C79.9699 32.1 78.1599 33.14 76.4099 32.67C74.6499 32.2 73.6099 30.39 74.0799 28.64C74.5499 26.88 76.3599 25.84 78.1099 26.31C79.8699 26.78 80.9099 28.59 80.4399 30.34Z" fill="#F5F5F6"/>
<path d="M84.2 19.2701C83.62 21.4401 81.39 22.7201 79.22 22.1401C77.05 21.5601 75.77 19.3301 76.35 17.1601C76.93 14.9901 79.16 13.7101 81.33 14.2901C83.5 14.8701 84.78 17.1001 84.2 19.2701Z" fill="#F5F5F6"/>
<path d="M87.96 8.21004C87.27 10.79 84.62 12.32 82.04 11.63C79.46 10.94 77.93 8.29004 78.62 5.71004C79.31 3.13004 81.96 1.60004 84.54 2.29004C87.12 2.98004 88.65 5.63004 87.96 8.21004Z" fill="#F5F5F6"/>
<path d="M61.41 81.8501C61.66 80.9101 62.62 80.3601 63.56 80.6101C64.5 80.8601 65.05 81.8201 64.8 82.7601C64.55 83.7001 63.59 84.2501 62.65 84.0001C61.71 83.7501 61.16 82.7901 61.41 81.8501Z" fill="#F5F5F6"/>
<path d="M57.6399 92.92C57.9999 91.57 59.3899 90.77 60.7299 91.13C62.0799 91.49 62.8799 92.8801 62.5199 94.2201C62.1599 95.5701 60.7699 96.3701 59.4299 96.0101C58.0799 95.6501 57.2799 94.26 57.6399 92.92Z" fill="#F5F5F6"/>
<path d="M53.88 103.98C54.35 102.22 56.16 101.18 57.91 101.65C59.67 102.12 60.71 103.93 60.24 105.68C59.77 107.44 57.96 108.48 56.21 108.01C54.45 107.54 53.41 105.73 53.88 103.98Z" fill="#F5F5F6"/>
<path d="M50.12 115.05C50.7 112.88 52.93 111.6 55.1 112.18C57.27 112.76 58.55 114.99 57.97 117.16C57.39 119.33 55.16 120.61 52.99 120.03C50.82 119.45 49.54 117.22 50.12 115.05Z" fill="#F5F5F6"/>
<path d="M46.36 126.11C47.05 123.53 49.7 122 52.28 122.69C54.86 123.38 56.39 126.03 55.7 128.61C55.01 131.19 52.36 132.72 49.78 132.03C47.2 131.34 45.67 128.69 46.36 126.11Z" fill="#F5F5F6"/>
<path d="M64.8 51.56C65.05 52.5 64.5 53.46 63.56 53.71C62.62 53.96 61.66 53.41 61.41 52.47C61.16 51.53 61.71 50.57 62.65 50.32C63.59 50.07 64.55 50.62 64.8 51.56Z" fill="#F5F5F6"/>
<path d="M62.5199 40.1001C62.8799 41.4501 62.0799 42.8301 60.7299 43.1901C59.3799 43.5501 57.9999 42.7501 57.6399 41.4001C57.2799 40.0501 58.0799 38.6701 59.4299 38.3101C60.7799 37.9501 62.1599 38.7501 62.5199 40.1001Z" fill="#F5F5F6"/>
<path d="M60.25 28.63C60.72 30.39 59.68 32.19 57.92 32.66C56.16 33.13 54.36 32.09 53.89 30.33C53.42 28.57 54.46 26.77 56.22 26.3C57.98 25.83 59.78 26.87 60.25 28.63Z" fill="#F5F5F6"/>
<path d="M57.97 17.17C58.55 19.34 57.26 21.57 55.1 22.15C52.94 22.73 50.7 21.44 50.12 19.28C49.54 17.11 50.83 14.88 52.99 14.3C55.16 13.72 57.39 15.01 57.97 17.17Z" fill="#F5F5F6"/>
<path d="M55.7 5.71004C56.39 8.29004 54.86 10.94 52.28 11.63C49.7 12.32 47.05 10.79 46.36 8.21004C45.67 5.63004 47.2 2.98004 49.78 2.29004C52.36 1.60004 55.01 3.13004 55.7 5.71004Z" fill="#F5F5F6"/>
<path d="M69.52 82.7601C69.27 81.8201 69.82 80.8601 70.76 80.6101C71.7 80.3601 72.66 80.9101 72.91 81.8501C73.16 82.7901 72.61 83.7501 71.67 84.0001C70.73 84.2501 69.77 83.7001 69.52 82.7601Z" fill="#F5F5F6"/>
<path d="M71.8 94.2201C71.44 92.8701 72.24 91.49 73.59 91.13C74.94 90.77 76.32 91.57 76.68 92.92C77.04 94.27 76.24 95.6501 74.89 96.0101C73.54 96.3701 72.16 95.5701 71.8 94.2201Z" fill="#F5F5F6"/>
<path d="M74.0699 105.69C73.5999 103.93 74.6399 102.13 76.3999 101.66C78.1599 101.19 79.9599 102.23 80.4299 103.99C80.8999 105.75 79.8599 107.55 78.0999 108.02C76.3399 108.49 74.5399 107.45 74.0699 105.69Z" fill="#F5F5F6"/>
<path d="M76.35 117.15C75.77 114.98 77.06 112.75 79.22 112.17C81.39 111.59 83.62 112.88 84.2 115.04C84.78 117.21 83.49 119.44 81.33 120.02C79.16 120.6 76.93 119.31 76.35 117.15Z" fill="#F5F5F6"/>
<path d="M78.62 128.61C77.93 126.03 79.46 123.38 82.04 122.69C84.62 122 87.27 123.53 87.96 126.11C88.65 128.69 87.12 131.34 84.54 132.03C81.96 132.72 79.31 131.19 78.62 128.61Z" fill="#F5F5F6"/>
<path d="M57.31 54.83C58 55.52 58 56.63 57.31 57.31C56.62 57.99 55.51 58 54.83 57.31C54.14 56.62 54.14 55.51 54.83 54.83C55.52 54.14 56.63 54.14 57.31 54.83Z" fill="#F5F5F6"/>
<path d="M49.61 46.04C50.6 47.03 50.6 48.62 49.61 49.61C48.62 50.6 47.03 50.6 46.04 49.61C45.05 48.62 45.05 47.03 46.04 46.04C47.03 45.05 48.62 45.05 49.61 46.04Z" fill="#F5F5F6"/>
<path d="M41.91 37.25C43.2 38.54 43.2 40.62 41.91 41.91C40.62 43.2 38.54 43.2 37.25 41.91C35.96 40.62 35.96 38.54 37.25 37.25C38.54 35.96 40.62 35.96 41.91 37.25Z" fill="#F5F5F6"/>
<path d="M34.21 28.46C35.8 30.05 35.8 32.62 34.21 34.21C32.62 35.8 30.05 35.8 28.46 34.21C26.87 32.62 26.87 30.05 28.46 28.46C30.05 26.87 32.62 26.87 34.21 28.46Z" fill="#F5F5F6"/>
<path d="M26.4999 19.67C28.3899 21.56 28.3899 24.62 26.4999 26.5C24.6099 28.39 21.5499 28.39 19.6699 26.5C17.7799 24.61 17.7799 21.55 19.6699 19.67C21.5599 17.79 24.6199 17.78 26.4999 19.67Z" fill="#F5F5F6"/>
<path d="M77.0099 79.4899C76.3199 78.7999 76.3199 77.6899 77.0099 77.0099C77.6999 76.3199 78.8099 76.3199 79.4899 77.0099C80.1799 77.6999 80.1799 78.8099 79.4899 79.4899C78.7999 80.1699 77.6899 80.1799 77.0099 79.4899Z" fill="#F5F5F6"/>
<path d="M84.7099 88.2799C83.7199 87.2899 83.7199 85.6999 84.7099 84.7099C85.6999 83.7199 87.2899 83.7199 88.2799 84.7099C89.2699 85.6999 89.2699 87.2899 88.2799 88.2799C87.2899 89.2699 85.6999 89.2699 84.7099 88.2799Z" fill="#F5F5F6"/>
<path d="M92.4099 97.0699C91.1199 95.7799 91.1199 93.6999 92.4099 92.4099C93.6999 91.1199 95.7799 91.1199 97.0699 92.4099C98.3599 93.6999 98.3599 95.7799 97.0699 97.0699C95.7799 98.3599 93.6999 98.3599 92.4099 97.0699Z" fill="#F5F5F6"/>
<path d="M100.11 105.86C98.52 104.27 98.52 101.7 100.11 100.11C101.7 98.52 104.27 98.52 105.86 100.11C107.45 101.7 107.45 104.27 105.86 105.86C104.27 107.45 101.7 107.45 100.11 105.86Z" fill="#F5F5F6"/>
<path d="M107.81 114.65C105.92 112.76 105.92 109.7 107.81 107.82C109.7 105.93 112.76 105.93 114.64 107.82C116.53 109.71 116.53 112.77 114.64 114.65C112.75 116.54 109.69 116.54 107.81 114.65Z" fill="#F5F5F6"/>
<path d="M52.47 61.41C53.41 61.66 53.96 62.62 53.71 63.56C53.46 64.5 52.5 65.05 51.56 64.8C50.62 64.55 50.07 63.59 50.32 62.65C50.57 61.71 51.53 61.16 52.47 61.41Z" fill="#F5F5F6"/>
<path d="M41.4001 57.6399C42.7501 57.9999 43.5501 59.3899 43.1901 60.7299C42.8301 62.0799 41.4401 62.8799 40.1001 62.5199C38.7501 62.1599 37.9501 60.7699 38.3101 59.4299C38.6701 58.0799 40.0601 57.2799 41.4001 57.6399Z" fill="#F5F5F6"/>
<path d="M30.34 53.8799C32.1 54.3499 33.14 56.1599 32.67 57.9099C32.2 59.6699 30.39 60.7099 28.64 60.2399C26.88 59.7699 25.84 57.9599 26.31 56.2099C26.78 54.4599 28.59 53.4099 30.34 53.8799Z" fill="#F5F5F6"/>
<path d="M19.2701 50.12C21.4401 50.7 22.7201 52.93 22.1401 55.1C21.5601 57.27 19.3301 58.55 17.1601 57.97C14.9901 57.39 13.7101 55.16 14.2901 52.99C14.8701 50.82 17.1001 49.54 19.2701 50.12Z" fill="#F5F5F6"/>
<path d="M8.21004 46.36C10.79 47.05 12.32 49.7 11.63 52.28C10.94 54.86 8.29004 56.39 5.71004 55.7C3.13004 55.01 1.60004 52.36 2.29004 49.78C2.98004 47.2 5.63004 45.67 8.21004 46.36Z" fill="#F5F5F6"/>
<path d="M81.8501 72.91C80.9101 72.66 80.3601 71.7 80.6101 70.76C80.8601 69.82 81.8201 69.27 82.7601 69.52C83.7001 69.77 84.2501 70.73 84.0001 71.67C83.7501 72.61 82.7901 73.16 81.8501 72.91Z" fill="#F5F5F6"/>
<path d="M92.92 76.6699C91.57 76.3099 90.77 74.9199 91.13 73.5799C91.49 72.2399 92.8801 71.4299 94.2201 71.7899C95.5701 72.1499 96.3701 73.5399 96.0101 74.8799C95.6501 76.2299 94.26 77.0299 92.92 76.6699Z" fill="#F5F5F6"/>
<path d="M103.98 80.4399C102.22 79.9699 101.18 78.1599 101.65 76.4099C102.12 74.6499 103.93 73.6099 105.68 74.0799C107.44 74.5499 108.48 76.3599 108.01 78.1099C107.54 79.8699 105.73 80.9099 103.98 80.4399Z" fill="#F5F5F6"/>
<path d="M115.05 84.2C112.88 83.62 111.6 81.39 112.18 79.22C112.76 77.05 114.99 75.77 117.16 76.35C119.33 76.93 120.61 79.16 120.03 81.33C119.45 83.5 117.22 84.78 115.05 84.2Z" fill="#F5F5F6"/>
<path d="M126.11 87.96C123.53 87.27 122 84.62 122.69 82.04C123.38 79.46 126.03 77.93 128.61 78.62C131.19 79.31 132.72 81.96 132.03 84.54C131.34 87.12 128.69 88.65 126.11 87.96Z" fill="#F5F5F6"/>
</g>
</g>
<defs>
<clipPath id="clip0_1203_2009">
<rect width="134.32" height="134.32" fill="white"/>
</clipPath>
</defs>
</svg>
