<svg xmlns="http://www.w3.org/2000/svg" width="129" height="25" fill="rgb(100%,100%,100%)" xmlns:v="https://vecta.io/nano"><path d="M19.512 22.379a3.01 3.01 0 0 1-2.145-.887c-.574-.574-.891-1.336-.891-2.145s.316-1.57.891-2.145a3 3 0 0 1 2.145-.887 3.01 3.01 0 0 1 2.145.887c1.184 1.184 1.184 3.105 0 4.289a3.01 3.01 0 0 1-2.145.887zM3.035 6.207c-.812 0-1.574-.316-2.148-.891S0 3.984 0 3.172a3.01 3.01 0 0 1 .887-2.141c.574-.574 1.336-.89 2.148-.89a3.01 3.01 0 0 1 2.141.887c.574.574.891 1.336.891 2.145a3.03 3.03 0 0 1-3.032 3.034zm0 0"/><path d="M19.379 6.117a3.03 3.03 0 0 1-2.148-.887 3.04 3.04 0 0 1 0-4.289C17.805.367 18.567.05 19.376.05a3.02 3.02 0 0 1 2.145.887 3.04 3.04 0 0 1 0 4.293 3.01 3.01 0 0 1-2.141.887zM3.113 22.379c-.809 0-1.574-.312-2.145-.887a3.03 3.03 0 0 1-.891-2.145c0-.809.316-1.57.891-2.145.121-.121.254-.23.426-.348l.152-.094c.109-.066.223-.125.328-.172a1.83 1.83 0 0 1 .176-.074c.109-.043.23-.078.371-.109l.074-.023.047-.012.676-.047c.086.004.176.016.273.027l.039.004a.54.54 0 0 0 .086.008l.027.004.031.004h.027a1.79 1.79 0 0 0 .148.004c1.164 0 2.313-.496 3.152-1.359S8.301 13 8.266 11.84v-.035l-.008-.035-.008-.098-.012-.117-.008-.066-.02-.172.055-.68.012-.047.012-.043a3.23 3.23 0 0 1 .113-.383l.074-.176.176-.336.09-.145a2.82 2.82 0 0 1 .352-.43 3 3 0 0 1 2.145-.891c.809 0 1.574.316 2.145.891 1.184 1.18 1.184 3.105 0 4.289a2.91 2.91 0 0 1-.43.348l-.145.09c-.109.066-.219.125-.328.176l-.176.074a3.36 3.36 0 0 1-.367.109l-.074.02c-.016.004-.031.008-.051.016l-.68.047c-.082-.004-.164-.016-.254-.027l-.059-.004c-.02-.004-.055-.008-.086-.008l-.023-.004-.035-.008h-.027-.148c-1.164 0-2.312.492-3.148 1.359-.84.859-1.297 2.016-1.266 3.176v.031l.008.035.008.098.012.117c.004.023.008.066.012.105l.012.137v.02l-.051.648c0 .012-.023.09-.031.113a2.79 2.79 0 0 1-.109.375l-.074.172a4.55 4.55 0 0 1-.172.336l-.098.152a3.27 3.27 0 0 1-.344.422c-.57.57-1.332.887-2.145.887zm8.192 0c-.812 0-1.574-.312-2.145-.887a3.03 3.03 0 0 1-.891-2.145 3.02 3.02 0 0 1 .887-2.145 3.16 3.16 0 0 1 .434-.352l.141-.086.332-.176.176-.074a2.91 2.91 0 0 1 .367-.109l.117-.031.688-.051c.082.004.168.016.258.027l.051.004.09.008c.012 0 .023 0 .035.004h.023l.027.004.152.004c1.16 0 2.309-.496 3.145-1.359S16.488 13 16.457 11.84l-.008-.141-.012-.016c0-.047-.004-.082-.008-.113l-.012-.098-.016-.16.051-.656c0-.016.027-.098.031-.121l.109-.375.074-.176.176-.332.016-.02.07-.121a3.11 3.11 0 0 1 .352-.434 3.03 3.03 0 0 1 2.148-.887c.809 0 1.57.316 2.145.887 1.18 1.184 1.18 3.109 0 4.293-.117.113-.254.223-.43.348l-.102.063-.051.031a3.58 3.58 0 0 1-.32.168l-.18.078a3.17 3.17 0 0 1-.371.105l-.078.023-.047.012-.672.047c-.102-.004-.207-.02-.309-.031l-.09-.008h-.031l-.059-.008c-.051 0-.102-.004-.148-.004-1.164 0-2.312.496-3.148 1.359s-1.297 2.02-1.262 3.176v.035l.008.031.008.105.012.105a1.06 1.06 0 0 0 .008.102c.008.051.012.102.016.152l-.051.668-.031.102a2.92 2.92 0 0 1-.109.383c-.02.055-.043.105-.07.16l-.008.02-.168.32-.094.152a3.11 3.11 0 0 1-.352.43 3.01 3.01 0 0 1-2.141.883zm-8.192-8.188c-.809 0-1.57-.316-2.145-.887s-.887-1.336-.887-2.148a2.98 2.98 0 0 1 .887-2.141 3.01 3.01 0 0 1 .43-.352c.043-.031.098-.062.148-.094l.324-.172.18-.074c.113-.043.234-.078.363-.105l.078-.023.043-.012.684-.051c.09.004.188.02.289.031l.02.004.09.008h.031l.027.004.031.004h.148a4.43 4.43 0 0 0 3.148-1.355c.839-.863 1.293-2.02 1.262-3.18v-.031l-.008-.035c-.008-.035-.008-.074-.012-.109a.76.76 0 0 0-.008-.094l-.008-.094-.016-.168.043-.637.008-.016v-.012l.027-.098.109-.387.078-.172a2.69 2.69 0 0 1 .172-.332l.012-.02.082-.129c.121-.176.23-.312.348-.426A3 3 0 0 1 11.238 0a3.01 3.01 0 0 1 2.145.887 3.04 3.04 0 0 1 0 4.293c-.117.117-.258.23-.426.344-.047.035-.09.059-.129.082l-.023.012a2.91 2.91 0 0 1-.324.172l-.176.078-.371.109a.61.61 0 0 0-.082.02c-.016.004-.031.012-.047.016l-.672.047-.273-.031-.039-.004-.086-.008H10.7l-.023-.004-.027-.004h-.152A4.43 4.43 0 0 0 7.35 7.364c-.839.863-1.293 2.02-1.262 3.176v.035l.008.035c.008.031.008.066.012.102a.96.96 0 0 0 .008.105l.012.102.012.152-.047.66c-.004.016-.012.035-.016.051l-.016.059-.109.383-.078.176-.172.328-.094.148c-.125.18-.23.313-.348.43a3.03 3.03 0 0 1-2.145.887zm117.864 5.301l-1.312-5.461-.195-.945-.199-1.082-.152-.988-.102-.707h-.066l-.109.719-.176 1-.219 1.121-.223 1.047-1.266 5.297h-4.523L109.031 7.02h4.238l1.012 4.789.223 1.266.211 1.484.129 1.344h.066l.102-1.035.184-1.176.199-1.027.121-.613 1.156-5.031h4.754l1.059 5.098.219 1.098.242 1.387.176 1.301h.066l.133-1.375.199-1.5.23-1.219 1.102-4.789H129l-3.422 12.473zm0 0"/><path d="M107.777 13.227c0 1.043-.141 1.969-.43 2.773s-.699 1.488-1.242 2.039-1.199.969-1.969 1.254c-.773.277-1.641.418-2.609.418-.902 0-1.734-.141-2.488-.418a5.64 5.64 0 0 1-1.961-1.254c-.555-.551-.988-1.23-1.297-2.039-.301-.805-.453-1.73-.453-2.773 0-1.379.25-2.547.75-3.5a5.18 5.18 0 0 1 2.156-2.18c.941-.5 2.059-.746 3.359-.746 1.195 0 2.258.246 3.191.746a5.4 5.4 0 0 1 2.191 2.18c.535.953.801 2.121.801 3.5zm-8.078 0c0 .711.063 1.313.188 1.805.125.484.324.855.594 1.113.277.25.641.375 1.09.375s.805-.125 1.066-.375c.266-.258.457-.629.574-1.113.125-.492.188-1.094.188-1.805s-.062-1.305-.187-1.781c-.117-.477-.312-.836-.582-1.078s-.625-.363-1.082-.363c-.652 0-1.125.27-1.418.813-.285.543-.43 1.348-.43 2.41zm-6.812 6.265h-4.305V2.363h4.305zm-11.922 0h-4.281V3.398h9.508v3.488h-5.227v3.07h4.82v3.492h-4.82zM73.426 7.02v12.473h-4.305V7.02zM71.289 2c.617 0 1.152.129 1.609.387s.691.766.691 1.527c0 .742-.23 1.246-.691 1.508s-.992.387-1.609.387c-.629 0-1.168-.129-1.617-.387-.441-.262-.66-.766-.66-1.508 0-.762.219-1.273.66-1.527.449-.258.988-.387 1.617-.387zM59.688 24.906c-1.77 0-3.133-.297-4.094-.891-.953-.59-1.43-1.437-1.43-2.543 0-.742.23-1.355.691-1.84s1.156-.832 2.082-1.047c-.383-.16-.719-.422-1.004-.781-.277-.359-.418-.715-.418-1.066 0-.387.105-.73.32-1.023.211-.301.656-.656 1.332-1.066-.645-.289-1.156-.734-1.531-1.344-.367-.609-.551-1.352-.551-2.223 0-.902.207-1.676.617-2.312.418-.637 1.023-1.125 1.816-1.465.801-.336 1.773-.504 2.918-.504a7.57 7.57 0 0 1 .703.043l.957.086.75.09h4.348v2.082l-1.707.625a2.78 2.78 0 0 1 .266.695 3.45 3.45 0 0 1 .086.793c0 1.34-.473 2.383-1.418 3.125s-2.344 1.109-4.215 1.109c-.465 0-.832-.027-1.102-.086a1.45 1.45 0 0 0-.121.285.99.99 0 0 0-.035.254c0 .168.102.305.297.406a2.54 2.54 0 0 0 .738.199 7.08 7.08 0 0 0 .836.055h2.07c1.402 0 2.453.293 3.148.879s1.047 1.473 1.047 2.656c0 1.516-.652 2.699-1.949 3.543s-3.109 1.266-5.449 1.266zm.211-2.687a9 9 0 0 0 1.574-.141c.531-.094.973-.234 1.332-.441s.539-.477.539-.816a.65.65 0 0 0-.32-.582c-.215-.125-.488-.207-.824-.254a8.51 8.51 0 0 0-1.07-.066h-1.672a2.46 2.46 0 0 0-.848.145c-.25.102-.449.238-.594.406a.85.85 0 0 0-.223.574c0 .352.191.633.574.848s.891.328 1.531.328zm.582-9.199a1.08 1.08 0 0 0 .945-.477c.23-.312.344-.785.344-1.418 0-.645-.109-1.129-.32-1.453s-.535-.484-.969-.484c-.449 0-.781.16-1 .484-.223.316-.332.793-.332 1.43s.109 1.121.332 1.441.551.477 1 .477zm-8.059-6v12.473h-4.301V7.02zM50.289 2c.617 0 1.152.129 1.605.387.461.254.695.766.695 1.527 0 .742-.234 1.246-.695 1.508-.453.258-.988.387-1.605.387-.633 0-1.172-.129-1.621-.387-.437-.262-.66-.766-.66-1.508 0-.762.223-1.273.66-1.527.449-.258.988-.387 1.621-.387zm-4.832 9.102c0 1.871-.352 3.43-1.047 4.668a6.69 6.69 0 0 1-2.949 2.797c-1.262.617-2.75.926-4.457.926h-5.207V3.398h5.57c1.73 0 3.199.297 4.402.891a6.11 6.11 0 0 1 2.738 2.609c.633 1.145.949 2.547.949 4.203zm-4.516.156c0-.977-.129-1.785-.395-2.422-.258-.645-.645-1.125-1.168-1.441-.52-.324-1.176-.484-1.969-.484h-1.266v9.016h.969c1.32 0 2.289-.383 2.906-1.145.613-.773.922-1.945.922-3.523zm0 0"/></svg>