<svg width="796" height="179" viewBox="0 0 796 179" fill="none" xmlns="http://www.w3.org/2000/svg">
<path d="M89.6399 178.955C89.2599 178.955 88.87 178.805 88.58 178.515L0.439941 90.535C0.159941 90.255 0 89.875 0 89.475C0 89.075 0.159941 88.695 0.439941 88.415L88.58 0.435C89.17 -0.145 90.11 -0.145 90.7 0.435L178.84 88.415C179.12 88.695 179.28 89.075 179.28 89.475C179.28 89.875 179.12 90.255 178.84 90.535L90.7 178.515C90.41 178.805 90.0199 178.955 89.6399 178.955ZM3.62 89.475L89.63 175.335L175.64 89.475L89.63 3.61501L3.62 89.475Z" fill="white"/>
<path d="M157.93 159.145C157.55 159.145 157.16 158.995 156.87 158.705L133.95 135.825C133.36 135.245 133.36 134.285 133.95 133.705C134.53 133.115 135.48 133.115 136.07 133.705L157.93 155.525L224.1 89.475L157.93 23.425L90.6999 90.535C90.1099 91.125 89.1599 91.115 88.5799 90.535C87.9999 89.945 87.9999 88.995 88.5799 88.415L156.87 20.245C157.46 19.665 158.4 19.665 158.99 20.245L227.28 88.415C227.56 88.695 227.72 89.075 227.72 89.475C227.72 89.875 227.56 90.255 227.28 90.535L158.99 158.705C158.7 158.995 158.31 159.145 157.93 159.145Z" fill="white"/>
<path d="M789.211 67.44H795.611L766.811 134H761.179L746.459 99.312L731.739 134H726.107L697.307 67.44H703.579L729.051 126.96L742.747 94.448L731.611 67.568H737.371L746.459 89.456L755.419 67.568H761.307L750.171 94.448L763.867 126.96L789.211 67.44Z" fill="white"/>
<path d="M659.388 135.28C654.695 135.28 650.343 134.384 646.332 132.592C642.407 130.8 638.993 128.325 636.092 125.168C633.191 121.925 630.929 118.213 629.308 114.032C627.687 109.851 626.876 105.456 626.876 100.848C626.876 96.1546 627.687 91.76 629.308 87.664C630.929 83.4826 633.191 79.8133 636.092 76.656C639.079 73.4133 642.535 70.896 646.46 69.104C650.471 67.2266 654.78 66.288 659.388 66.288C663.996 66.288 668.263 67.2266 672.188 69.104C676.113 70.896 679.569 73.4133 682.556 76.656C685.543 79.8133 687.847 83.4826 689.468 87.664C691.089 91.76 691.9 96.1546 691.9 100.848C691.9 105.456 691.089 109.851 689.468 114.032C687.847 118.213 685.543 121.925 682.556 125.168C679.655 128.325 676.199 130.8 672.188 132.592C668.263 134.384 663.996 135.28 659.388 135.28ZM633.276 101.104C633.276 106.309 634.428 111.088 636.732 115.44C639.121 119.707 642.279 123.12 646.204 125.68C650.129 128.24 654.481 129.52 659.26 129.52C664.039 129.52 668.391 128.24 672.316 125.68C676.327 123.035 679.484 119.536 681.788 115.184C684.177 110.747 685.372 105.925 685.372 100.72C685.372 95.5146 684.177 90.736 681.788 86.384C679.484 82.032 676.327 78.576 672.316 76.016C668.391 73.3706 664.081 72.048 659.388 72.048C654.609 72.048 650.257 73.3706 646.332 76.016C642.407 78.6613 639.249 82.16 636.86 86.512C634.471 90.864 633.276 95.728 633.276 101.104Z" fill="white"/>
<path d="M598.871 40.56H605.399V120.816C605.399 123.888 606.039 126.021 607.319 127.216C608.599 128.325 610.263 128.88 612.311 128.88C613.676 128.88 615.084 128.752 616.535 128.496C617.986 128.24 619.266 127.899 620.375 127.472L621.655 132.72C620.204 133.232 618.412 133.701 616.279 134.128C614.146 134.555 612.311 134.768 610.775 134.768C607.191 134.768 604.29 133.701 602.071 131.568C599.938 129.349 598.871 126.405 598.871 122.736V40.56Z" fill="white"/>
<path d="M524.279 134V43.12H583.415V49.008H530.807V85.104H575.479V90.736H530.807V134H524.279Z" fill="white"/>
<path d="M475.406 135.28C470.371 135.28 465.763 134.384 461.582 132.592C457.486 130.715 453.902 128.197 450.83 125.04C447.843 121.797 445.497 118.085 443.79 113.904C442.169 109.723 441.358 105.285 441.358 100.592C441.358 94.2773 442.809 88.5173 445.71 83.312C448.611 78.1066 452.622 73.9253 457.742 70.768C462.947 67.6106 468.878 66.032 475.534 66.032C482.275 66.032 488.121 67.6533 493.07 70.896C498.105 74.0533 501.987 78.2347 504.718 83.44C507.534 88.56 508.942 94.1067 508.942 100.08C508.942 100.933 508.899 101.787 508.814 102.64C508.814 103.408 508.771 104.005 508.686 104.432H453.262C453.603 108.784 454.798 112.667 456.846 116.08C458.979 119.408 461.71 122.053 465.038 124.016C468.366 125.893 471.95 126.832 475.79 126.832C479.886 126.832 483.726 125.808 487.31 123.76C490.979 121.712 493.497 119.024 494.862 115.696L504.59 118.384C503.139 121.627 500.963 124.528 498.062 127.088C495.246 129.648 491.875 131.653 487.95 133.104C484.11 134.555 479.929 135.28 475.406 135.28ZM452.878 96.624H498.446C498.105 92.272 496.867 88.432 494.734 85.104C492.601 81.776 489.87 79.1733 486.542 77.296C483.214 75.4186 479.545 74.48 475.534 74.48C471.609 74.48 467.982 75.4186 464.654 77.296C461.326 79.1733 458.595 81.776 456.462 85.104C454.414 88.432 453.219 92.272 452.878 96.624Z" fill="white"/>
<path d="M428.322 134H417.058V96.624C417.058 89.5413 415.949 84.3787 413.73 81.136C411.597 77.808 408.311 76.144 403.874 76.144C400.802 76.144 397.73 76.912 394.658 78.448C391.671 79.984 388.983 82.0747 386.594 84.72C384.29 87.28 382.626 90.2666 381.602 93.68V134H370.338V67.184H380.578V81.52C382.37 78.3626 384.674 75.632 387.49 73.328C390.306 71.024 393.506 69.232 397.09 67.952C400.674 66.672 404.429 66.032 408.354 66.032C412.194 66.032 415.394 66.7573 417.954 68.208C420.599 69.5733 422.647 71.536 424.098 74.096C425.634 76.5706 426.701 79.5146 427.298 82.928C427.981 86.3413 428.322 90.0533 428.322 94.064V134Z" fill="white"/>
<path d="M340.838 134V67.184H352.102V134H340.838ZM340.838 54.64V40.56H352.102V54.64H340.838Z" fill="white"/>
<path d="M267.88 134V43.12H279.4V123.76H330.088V134H267.88Z" fill="white"/>
</svg>
