<svg width="447" height="73" viewBox="0 0 447 73" fill="none" xmlns="http://www.w3.org/2000/svg">
<path d="M446.846 25.608L438.39 56.856H427.806L422.878 36.584L417.782 56.856H407.254L398.742 25.608H408.318L412.742 47.952L418.006 25.608H428.142L433.462 47.84L437.83 25.608H446.846Z" fill="white"/>
<path d="M380.558 57.304C377.497 57.304 374.734 56.6507 372.27 55.344C369.843 54.0374 367.921 52.1707 366.502 49.744C365.121 47.3174 364.43 44.48 364.43 41.232C364.43 38.0214 365.139 35.2027 366.558 32.776C367.977 30.312 369.918 28.4267 372.382 27.12C374.846 25.8134 377.609 25.16 380.67 25.16C383.731 25.16 386.494 25.8134 388.958 27.12C391.422 28.4267 393.363 30.312 394.782 32.776C396.201 35.2027 396.91 38.0214 396.91 41.232C396.91 44.4427 396.182 47.28 394.726 49.744C393.307 52.1707 391.347 54.0374 388.846 55.344C386.382 56.6507 383.619 57.304 380.558 57.304ZM380.558 49.016C382.387 49.016 383.937 48.344 385.206 47C386.513 45.656 387.166 43.7334 387.166 41.232C387.166 38.7307 386.531 36.808 385.262 35.464C384.03 34.12 382.499 33.448 380.67 33.448C378.803 33.448 377.254 34.12 376.022 35.464C374.79 36.7707 374.174 38.6934 374.174 41.232C374.174 43.7334 374.771 45.656 375.966 47C377.198 48.344 378.729 49.016 380.558 49.016Z" fill="white"/>
<path d="M359.394 15.416V56.856H349.818V15.416H359.394Z" fill="white"/>
<path d="M344.785 17.544V25.216H328.769V33.504H340.753V40.952H328.769V56.856H319.193V17.544H344.785Z" fill="white"/>
<path d="M293.057 25.16C295.26 25.16 297.183 25.608 298.826 26.504C300.506 27.4 301.793 28.576 302.689 30.032V25.608H312.266V56.8C312.266 59.6747 311.687 62.2694 310.529 64.584C309.409 66.936 307.674 68.8027 305.322 70.184C303.007 71.5654 300.114 72.256 296.642 72.256C292.012 72.256 288.26 71.1547 285.385 68.952C282.511 66.7867 280.868 63.8374 280.458 60.104H289.922C290.22 61.2987 290.929 62.232 292.049 62.904C293.169 63.6134 294.551 63.968 296.193 63.968C298.172 63.968 299.74 63.3894 300.898 62.232C302.092 61.112 302.689 59.3014 302.689 56.8V52.376C301.756 53.832 300.468 55.0267 298.826 55.96C297.183 56.856 295.26 57.304 293.057 57.304C290.481 57.304 288.148 56.6507 286.057 55.344C283.967 54 282.306 52.1147 281.074 49.688C279.879 47.224 279.281 44.3867 279.281 41.176C279.281 37.9654 279.879 35.1467 281.074 32.72C282.306 30.2934 283.967 28.4267 286.057 27.12C288.148 25.8134 290.481 25.16 293.057 25.16ZM302.689 41.232C302.689 38.8427 302.018 36.9574 300.674 35.576C299.367 34.1947 297.761 33.504 295.857 33.504C293.953 33.504 292.33 34.1947 290.986 35.576C289.679 36.92 289.025 38.7867 289.025 41.176C289.025 43.5654 289.679 45.4694 290.986 46.888C292.33 48.2694 293.953 48.96 295.857 48.96C297.761 48.96 299.367 48.2694 300.674 46.888C302.018 45.5067 302.689 43.6214 302.689 41.232Z" fill="white"/>
<path d="M262.491 25.272C266.15 25.272 269.062 26.4667 271.227 28.856C273.43 31.208 274.531 34.456 274.531 38.6V56.856H265.011V39.888C265.011 37.7974 264.47 36.1734 263.387 35.016C262.304 33.8587 260.848 33.28 259.019 33.28C257.19 33.28 255.734 33.8587 254.651 35.016C253.568 36.1734 253.027 37.7974 253.027 39.888V56.856H243.451V25.608H253.027V29.752C253.998 28.3707 255.304 27.288 256.947 26.504C258.59 25.6827 260.438 25.272 262.491 25.272Z" fill="white"/>
<path d="M231.751 22.36C230.071 22.36 228.69 21.8747 227.607 20.904C226.562 19.896 226.039 18.664 226.039 17.208C226.039 15.7147 226.562 14.4827 227.607 13.512C228.69 12.504 230.071 12 231.751 12C233.394 12 234.738 12.504 235.783 13.512C236.866 14.4827 237.407 15.7147 237.407 17.208C237.407 18.664 236.866 19.896 235.783 20.904C234.738 21.8747 233.394 22.36 231.751 22.36ZM236.511 25.608V56.856H226.935V25.608H236.511Z" fill="white"/>
<path d="M187.024 41.176C187.024 37.9653 187.621 35.1467 188.816 32.72C190.048 30.2933 191.709 28.4267 193.8 27.12C195.89 25.8133 198.224 25.16 200.8 25.16C202.853 25.16 204.72 25.5893 206.4 26.448C208.117 27.3067 209.461 28.464 210.432 29.92V15.416H220.008V56.856H210.432V52.376C209.536 53.8693 208.248 55.064 206.568 55.96C204.925 56.856 203.002 57.304 200.8 57.304C198.224 57.304 195.89 56.6507 193.8 55.344C191.709 54 190.048 52.1147 188.816 49.688C187.621 47.224 187.024 44.3867 187.024 41.176ZM210.432 41.232C210.432 38.8427 209.76 36.9573 208.416 35.576C207.109 34.1947 205.504 33.504 203.6 33.504C201.696 33.504 200.072 34.1947 198.728 35.576C197.421 36.92 196.768 38.7867 196.768 41.176C196.768 43.5653 197.421 45.4694 198.728 46.888C200.072 48.2694 201.696 48.96 203.6 48.96C205.504 48.96 207.109 48.2694 208.416 46.888C209.76 45.5067 210.432 43.6213 210.432 41.232Z" fill="white"/>
<path d="M170.233 25.272C173.892 25.272 176.804 26.4667 178.969 28.856C181.172 31.208 182.273 34.456 182.273 38.6V56.856H172.753V39.888C172.753 37.7974 172.212 36.1734 171.129 35.016C170.047 33.8587 168.591 33.28 166.761 33.28C164.932 33.28 163.476 33.8587 162.393 35.016C161.311 36.1734 160.769 37.7974 160.769 39.888V56.856H151.193V25.608H160.769V29.752C161.74 28.3707 163.047 27.288 164.689 26.504C166.332 25.6827 168.18 25.272 170.233 25.272Z" fill="white"/>
<path d="M111.281 41.176C111.281 37.9654 111.879 35.1467 113.073 32.72C114.305 30.2934 115.967 28.4267 118.057 27.12C120.148 25.8134 122.481 25.16 125.057 25.16C127.26 25.16 129.183 25.608 130.825 26.504C132.505 27.4 133.793 28.576 134.689 30.032V25.608H144.265V56.856H134.689V52.432C133.756 53.888 132.449 55.064 130.769 55.96C129.127 56.856 127.204 57.304 125.001 57.304C122.463 57.304 120.148 56.6507 118.057 55.344C115.967 54 114.305 52.1147 113.073 49.688C111.879 47.224 111.281 44.3867 111.281 41.176ZM134.689 41.232C134.689 38.8427 134.017 36.9574 132.673 35.576C131.367 34.1947 129.761 33.504 127.857 33.504C125.953 33.504 124.329 34.1947 122.985 35.576C121.679 36.92 121.025 38.7867 121.025 41.176C121.025 43.5654 121.679 45.4694 122.985 46.888C124.329 48.2694 125.953 48.96 127.857 48.96C129.761 48.96 131.367 48.2694 132.673 46.888C134.017 45.5067 134.689 43.6214 134.689 41.232Z" fill="white"/>
<path d="M96.0739 49.464H108.618V56.856H86.4979V17.544H96.0739V49.464Z" fill="white"/>
<path d="M6.96591 32.947C7.63082 27.2982 9.91125 21.9696 13.5266 17.617C13.9266 17.1282 14.4229 16.7295 14.9837 16.4462C15.5446 16.1629 16.1576 16.0014 16.7836 15.9718C17.4095 15.9423 18.0347 16.0455 18.6191 16.2747C19.2035 16.504 19.7342 16.8543 20.1773 17.3033L27.9651 25.3618C28.7151 26.1199 29.1747 27.1235 29.2619 28.1933C29.349 29.263 29.058 30.3294 28.4408 31.2018C27.9732 31.8738 27.6212 32.6209 27.3994 33.4118C27.3289 33.6451 27.1865 33.8494 26.993 33.9946C26.7995 34.1399 26.5651 34.2184 26.3242 34.2188H8.08609C7.92717 34.219 7.76999 34.1852 7.6249 34.1195C7.4798 34.0538 7.35008 33.9577 7.24427 33.8376C7.13845 33.7174 7.05894 33.576 7.01097 33.4225C6.96299 33.269 6.94763 33.1069 6.96591 32.947ZM38.6688 6.86086C38.0468 6.80591 37.4203 6.8826 36.8291 7.08607C36.2379 7.28953 35.6949 7.61533 35.2347 8.04277C34.7744 8.4702 34.4069 8.98994 34.1555 9.56897C33.9041 10.148 33.7743 10.7737 33.7743 11.4063V23.0036C33.7665 24.0797 34.1377 25.1233 34.8213 25.9471C35.5048 26.7708 36.4559 27.3206 37.5036 27.4976C39.4764 27.8274 41.2848 28.8129 42.6438 30.2988C44.0028 31.7847 44.8352 33.6866 45.0097 35.7047C45.1841 37.7227 44.6908 39.7422 43.6075 41.4449C42.5242 43.1476 40.9124 44.4366 39.0262 45.1089C38.8067 45.1906 38.6172 45.3386 38.4833 45.5329C38.3494 45.7271 38.2776 45.9584 38.2775 46.1953V64.7961C38.2765 64.9576 38.3093 65.1174 38.3738 65.2651C38.4383 65.4128 38.533 65.5449 38.6517 65.6528C38.7703 65.7606 38.9102 65.8417 39.0621 65.8906C39.2141 65.9396 39.3745 65.9553 39.5328 65.9367C46.5575 65.058 53.0326 61.6385 57.7665 56.3073C62.5005 50.9761 65.1747 44.0921 65.297 36.922C65.5081 21.4409 53.8109 8.23532 38.6688 6.86086ZM33.0003 45.1003C31.7417 44.6455 30.5988 43.9126 29.6544 42.9548C28.71 41.9969 27.9878 40.8382 27.5401 39.5626C27.4634 39.3364 27.3193 39.1398 27.1278 38.9999C26.9363 38.8599 26.7067 38.7836 26.4706 38.7813H8.08328C7.92415 38.7802 7.76661 38.8134 7.62105 38.8786C7.4755 38.9437 7.34523 39.0394 7.23885 39.1593C7.13247 39.2793 7.05239 39.4206 7.00388 39.5742C6.95538 39.7278 6.93956 39.89 6.95747 40.0502C7.74585 46.6414 10.6924 52.7745 15.3262 57.4692C19.96 62.164 26.0135 65.1493 32.519 65.9481C32.6771 65.9662 32.8373 65.9502 32.9888 65.9011C33.1404 65.8519 33.28 65.7708 33.3983 65.663C33.5167 65.5552 33.6111 65.4232 33.6754 65.2758C33.7398 65.1283 33.7725 64.9687 33.7715 64.8075V46.1953C33.7719 45.9541 33.6978 45.7187 33.5595 45.5223C33.4212 45.3259 33.2256 45.1784 33.0003 45.1003Z" fill="white"/>
</svg>
