<svg xmlns="http://www.w3.org/2000/svg" width="129" height="25" viewBox="0 0 111 25" fill="rgb(100%,100%,100%)" xmlns:v="https://vecta.io/nano"><path d="M12.5 24.992c-.055 0-.105-.02-.148-.059L.063 12.645C.023 12.605 0 12.551 0 12.496s.023-.109.063-.148L12.352.063a.21.21 0 0 1 .297 0l12.289 12.285c.039.039.063.094.063.148s-.023.109-.062.148L12.648 24.934a.21.21 0 0 1-.148.059zM.504 12.496L12.5 24.488l11.992-11.992L12.5.504zm0 0"/><path d="M22.023 22.227a.2.2 0 0 1-.148-.062L18.68 18.97c-.082-.078-.082-.215 0-.293.082-.086.211-.086.293 0l3.051 3.047 9.227-9.227-9.227-9.223-9.375 9.371a.21.21 0 1 1-.297-.297l9.523-9.52a.21.21 0 0 1 .297 0l9.523 9.52a.21.21 0 0 1 .059.148.21.21 0 0 1-.059.148l-9.523 9.52a.21.21 0 0 1-.148.063zm88.032-12.809h.891l-4.016 9.297h-.785l-2.055-4.844-2.051 4.844h-.785l-4.016-9.297h.875l3.551 8.313 1.91-4.539-1.555-3.754h.805l1.266 3.055 1.25-3.055h.824l-1.555 3.754 1.91 4.539zm0 0"/><path d="M91.949 18.895a4.41 4.41 0 0 1-1.82-.375 4.37 4.37 0 0 1-1.426-1.039 5.01 5.01 0 0 1-.949-1.555 5.04 5.04 0 0 1-.336-1.84 4.97 4.97 0 0 1 .336-1.844 4.83 4.83 0 0 1 .949-1.535 4.45 4.45 0 0 1 1.445-1.055c.559-.262 1.16-.395 1.801-.395s1.238.133 1.785.395a4.45 4.45 0 0 1 1.445 1.055 4.67 4.67 0 0 1 .965 1.535c.227.574.34 1.188.34 1.844 0 .641-.113 1.258-.34 1.84a4.84 4.84 0 0 1-.965 1.555 4.33 4.33 0 0 1-1.445 1.039 4.24 4.24 0 0 1-1.785.375zm-3.641-4.773c0 .727.16 1.395.48 2 .336.598.773 1.074 1.324 1.434a3.27 3.27 0 0 0 1.82.535 3.28 3.28 0 0 0 1.82-.535c.559-.371 1-.859 1.32-1.469.332-.617.5-1.293.5-2.02s-.168-1.395-.5-2c-.32-.609-.762-1.094-1.32-1.449-.547-.371-1.148-.555-1.805-.555-.664 0-1.273.184-1.82.555s-.988.859-1.32 1.465-.5 1.289-.5 2.039zm-4.796-8.458h.91v11.211c0 .43.09.727.266.895.18.152.41.23.699.23a3.41 3.41 0 0 0 .586-.055c.203-.035.383-.082.535-.141l.18.73c-.203.074-.453.137-.75.199s-.551.09-.766.09c-.5 0-.906-.152-1.215-.449-.297-.309-.445-.719-.445-1.234zM73.109 18.715V6.023h8.246v.82H74.02v5.043h6.23v.785h-6.23v6.043zm-6.816.18a4.84 4.84 0 0 1-1.926-.375 4.96 4.96 0 0 1-1.5-1.055c-.418-.453-.742-.973-.98-1.555-.227-.586-.34-1.207-.34-1.859a4.9 4.9 0 0 1 .605-2.414 4.76 4.76 0 0 1 1.68-1.754c.727-.441 1.551-.66 2.48-.66.938 0 1.754.227 2.445.68a4.51 4.51 0 0 1 1.625 1.75c.391.715.586 1.492.586 2.324l-.016.359a1.32 1.32 0 0 1-.02.25h-7.727c.047.605.215 1.148.5 1.625a3.36 3.36 0 0 0 1.141 1.109 3.01 3.01 0 0 0 1.5.395 3.19 3.19 0 0 0 1.605-.43c.512-.285.863-.66 1.055-1.125l1.355.375a3.55 3.55 0 0 1-.91 1.215c-.391.355-.863.637-1.41.84-.535.203-1.117.305-1.75.305zm-3.141-5.398h6.355c-.047-.609-.223-1.145-.52-1.609s-.676-.828-1.141-1.09-.977-.395-1.535-.395a3.05 3.05 0 0 0-1.52.395 3.24 3.24 0 0 0-1.141 1.09c-.285.465-.453 1-.5 1.609zm-3.425 5.218h-1.57v-5.219c0-.992-.152-1.711-.461-2.164-.301-.465-.758-.699-1.375-.699-.43 0-.859.109-1.285.324a3.95 3.95 0 0 0-1.125.875c-.32.359-.555.773-.695 1.25v5.633h-1.57V9.383h1.426v2.004c.25-.441.57-.824.965-1.145a4.33 4.33 0 0 1 1.34-.75 4.59 4.59 0 0 1 1.57-.27c.535 0 .98.102 1.336.305a2.05 2.05 0 0 1 .859.82c.211.348.363.758.445 1.234a8.07 8.07 0 0 1 .141 1.555zm-12.2 0V9.383h1.574v9.332zm0-11.082V5.664h1.574v1.969zM37.355 18.715V6.023h1.605v11.262h7.07v1.43zm0 0"/></svg>