<svg xmlns="http://www.w3.org/2000/svg" width="129" height="25" viewBox="0 0 153 25" fill="rgb(100%,100%,100%)" xmlns:v="https://vecta.io/nano"><path d="M152.949 8.77l-2.895 10.703h-3.625l-1.687-6.945L143 19.473h-3.605L136.48 8.77h3.281l1.512 7.652 1.801-7.652h3.473l1.82 7.613 1.492-7.613zm-22.691 10.855c-1.047 0-1.992-.223-2.836-.672-.832-.445-1.488-1.086-1.977-1.918-.473-.832-.707-1.801-.707-2.914 0-1.102.242-2.066.727-2.895a4.91 4.91 0 0 1 1.996-1.937c.844-.449 1.789-.672 2.836-.672s1.992.223 2.836.672 1.508 1.09 1.992 1.938c.488.828.73 1.793.73 2.895s-.25 2.07-.746 2.914a4.94 4.94 0 0 1-2.016 1.918c-.844.449-1.789.672-2.836.672zm0-2.84a2.11 2.11 0 0 0 1.59-.687c.449-.461.672-1.121.672-1.977s-.219-1.516-.652-1.977a2.04 2.04 0 0 0-1.57-.691 2.06 2.06 0 0 0-1.59.691c-.422.449-.633 1.105-.633 1.977 0 .855.203 1.516.613 1.977a2.05 2.05 0 0 0 1.57.688zm-7.242-11.504v14.191h-3.277V5.281zm-5.004.727v2.629h-5.48v2.836h4.102v2.551h-4.102v5.449h-3.277V6.008zm-17.703 2.609c.754 0 1.41.152 1.973.461a3.34 3.34 0 0 1 1.324 1.207V8.77h3.277v10.684c0 .984-.199 1.871-.594 2.664-.383.805-.977 1.445-1.781 1.918-.793.473-1.785.711-2.973.711-1.586 0-2.867-.379-3.852-1.133-.984-.742-1.547-1.75-1.687-3.031h3.238c.102.41.344.73.73.961.383.242.855.363 1.418.363.676 0 1.211-.199 1.609-.594.41-.383.613-1.004.613-1.859v-1.516c-.32.5-.762.906-1.324 1.227-.562.309-1.219.461-1.973.461-.883 0-1.68-.223-2.395-.672-.719-.461-1.285-1.105-1.707-1.937-.41-.844-.613-1.816-.613-2.914s.203-2.066.613-2.895c.422-.832.988-1.473 1.707-1.918a4.45 4.45 0 0 1 2.395-.672zm3.297 5.504c0-.82-.23-1.465-.691-1.937-.445-.473-.996-.711-1.648-.711s-1.207.238-1.668.711c-.445.461-.668 1.098-.668 1.918s.223 1.469.668 1.957a2.24 2.24 0 0 0 1.668.707 2.17 2.17 0 0 0 1.648-.707c.461-.473.691-1.121.691-1.937zM89.848 8.656c1.25 0 2.246.406 2.988 1.227.754.805 1.133 1.918 1.133 3.336v6.254h-3.262V13.66c0-.715-.184-1.273-.555-1.668s-.867-.594-1.496-.594-1.125.195-1.492.594-.559.953-.559 1.668v5.813h-3.277V8.77h3.277v1.418a3.36 3.36 0 0 1 1.344-1.109c.563-.281 1.195-.422 1.898-.422zm-10.524-1c-.574 0-1.047-.164-1.418-.496-.359-.348-.539-.77-.539-1.266 0-.512.18-.934.539-1.266.371-.348.844-.52 1.418-.52.563 0 1.023.172 1.379.52.371.332.559.754.559 1.266a1.67 1.67 0 0 1-.559 1.266c-.355.332-.816.496-1.379.496zm1.629 1.113v10.703h-3.277V8.77zm-16.937 5.333c0-1.102.203-2.066.613-2.895.422-.832.988-1.473 1.707-1.918a4.45 4.45 0 0 1 2.395-.672c.703 0 1.34.145 1.918.441.586.293 1.047.688 1.379 1.188V5.281h3.277v14.191h-3.277v-1.535c-.309.512-.746.922-1.324 1.227-.562.309-1.219.461-1.973.461-.883 0-1.68-.223-2.395-.672-.719-.461-1.285-1.105-1.707-1.937-.41-.844-.613-1.816-.613-2.914zm8.012.02c0-.82-.23-1.465-.691-1.937-.445-.473-.996-.711-1.648-.711s-1.207.238-1.668.711c-.445.461-.668 1.098-.668 1.918s.223 1.469.668 1.957a2.24 2.24 0 0 0 1.668.707 2.17 2.17 0 0 0 1.648-.707c.461-.473.691-1.121.691-1.937zM58.27 8.656c1.25 0 2.246.406 2.988 1.227.754.805 1.133 1.918 1.133 3.336v6.254h-3.262V13.66c0-.715-.184-1.273-.555-1.668s-.867-.594-1.496-.594-1.125.195-1.492.594-.559.953-.559 1.668v5.813H51.75V8.77h3.277v1.418a3.36 3.36 0 0 1 1.344-1.109c.563-.281 1.195-.422 1.898-.422zm-20.18 5.446c0-1.102.203-2.066.613-2.895.422-.832.992-1.473 1.707-1.918a4.44 4.44 0 0 1 2.395-.672c.754 0 1.414.152 1.973.461a3.34 3.34 0 0 1 1.324 1.207V8.77h3.277v10.703h-3.277v-1.516c-.32.496-.766.902-1.34 1.207-.562.309-1.223.461-1.977.461-.867 0-1.66-.223-2.375-.672-.715-.461-1.285-1.105-1.707-1.937-.41-.844-.613-1.816-.613-2.914zm8.012.02c0-.82-.23-1.465-.691-1.937-.445-.473-.996-.711-1.648-.711a2.25 2.25 0 0 0-1.668.711c-.445.461-.668 1.098-.668 1.918s.223 1.469.668 1.957c.461.473 1.02.707 1.668.707s1.203-.234 1.648-.707c.461-.473.691-1.121.691-1.937zm-13.219 2.819h4.297v2.531h-7.574V6.008h3.277zm-30.5-5.656c.23-1.937 1.008-3.762 2.246-5.25a1.56 1.56 0 0 1 .5-.402 1.54 1.54 0 0 1 .617-.164 1.56 1.56 0 0 1 .625.105c.203.078.383.199.535.352L9.57 8.688c.258.258.414.602.445.969s-.07.73-.281 1.031a2.43 2.43 0 0 0-.355.754.37.37 0 0 1-.141.199.37.37 0 0 1-.227.078H2.77c-.055 0-.109-.012-.16-.035s-.094-.055-.129-.094a.48.48 0 0 1-.082-.145.44.44 0 0 1-.016-.16zm10.852-8.934a1.5 1.5 0 0 0-.629.074 1.6 1.6 0 0 0-.547.328c-.16.144-.281.324-.367.523a1.59 1.59 0 0 0-.133.629v3.973c0 .367.125.727.359 1.008s.559.469.918.531a3.08 3.08 0 0 1 1.762.957 3.15 3.15 0 0 1 .809 1.852c.059.692-.109 1.383-.48 1.969a3.08 3.08 0 0 1-1.566 1.254c-.078.027-.141.078-.187.145a.39.39 0 0 0-.07.227v6.371a.45.45 0 0 0 .031.16c.023.051.055.094.098.133s.086.063.141.082a.44.44 0 0 0 .16.016c2.406-.301 4.621-1.473 6.242-3.297a10.27 10.27 0 0 0 2.578-6.641c.07-5.301-3.934-9.824-9.117-10.293zm-1.937 13.094a3.08 3.08 0 0 1-1.148-.734c-.32-.328-.57-.727-.723-1.16a.39.39 0 0 0-.141-.195c-.067-.047-.145-.074-.227-.074H2.766a.37.37 0 0 0-.156.035c-.051.023-.094.055-.133.094a.4.4 0 0 0-.078.145.32.32 0 0 0-.016.16 10.21 10.21 0 0 0 2.863 5.965c1.586 1.609 3.656 2.633 5.883 2.906a.47.47 0 0 0 .164-.016.44.44 0 0 0 .137-.082.41.41 0 0 0 .098-.133.45.45 0 0 0 .031-.16V15.82a.4.4 0 0 0-.07-.23.41.41 0 0 0-.191-.145zm0 0"/></svg>